<ttFont>
    <TTGlyph name=".notdef" xMin="50" yMin="0" xMax="450" yMax="707">
      <contour>
        <pt x="50" y="707" on="1"/>
        <pt x="450" y="707" on="1"/>
        <pt x="450" y="0" on="1"/>
        <pt x="50" y="0" on="1"/>
      </contour>
      <contour>
        <pt x="400" y="50" on="1"/>
        <pt x="400" y="657" on="1"/>
        <pt x="100" y="657" on="1"/>
        <pt x="100" y="50" on="1"/>
      </contour>
    </TTGlyph>
    <TTGlyph name="A" xMin="46" yMin="200" xMax="363" yMax="705">
      <contour>
        <pt x="249" y="455" on="1"/>
        <pt x="249" y="505" on="0"/>
        <pt x="246" y="565" on="0"/>
        <pt x="237" y="598" on="0"/>
        <pt x="220" y="609" on="0"/>
        <pt x="205" y="609" on="1"/>
        <pt x="190" y="609" on="0"/>
        <pt x="173" y="598" on="0"/>
        <pt x="163" y="565" on="0"/>
        <pt x="160" y="505" on="0"/>
        <pt x="160" y="455" on="1"/>
        <pt x="160" y="404" on="0"/>
        <pt x="163" y="342" on="0"/>
        <pt x="173" y="308" on="0"/>
        <pt x="190" y="296" on="0"/>
        <pt x="205" y="296" on="1"/>
        <pt x="220" y="296" on="0"/>
        <pt x="237" y="308" on="0"/>
        <pt x="246" y="342" on="0"/>
        <pt x="249" y="404" on="0"/>
      </contour>
      <contour>
        <pt x="363" y="459" on="1"/>
        <pt x="363" y="390" on="0"/>
        <pt x="349" y="292" on="0"/>
        <pt x="313" y="229" on="0"/>
        <pt x="252" y="200" on="0"/>
        <pt x="205" y="200" on="1"/>
        <pt x="158" y="200" on="0"/>
        <pt x="96" y="229" on="0"/>
        <pt x="60" y="292" on="0"/>
        <pt x="46" y="390" on="0"/>
        <pt x="46" y="459" on="1"/>
        <pt x="46" y="525" on="0"/>
        <pt x="61" y="618" on="0"/>
        <pt x="97" y="678" on="0"/>
        <pt x="159" y="705" on="0"/>
        <pt x="205" y="705" on="1"/>
        <pt x="252" y="705" on="0"/>
        <pt x="313" y="678" on="0"/>
        <pt x="349" y="618" on="0"/>
        <pt x="363" y="525" on="0"/>
      </contour>
    </TTGlyph>
    <TTGlyph name="AE" xMin="50" yMin="244" xMax="200" yMax="374">
      <contour>
        <pt x="50" y="244" on="1"/>
        <pt x="50" y="374" on="1"/>
        <pt x="200" y="374" on="1"/>
        <pt x="200" y="244" on="1"/>
      </contour>
    </TTGlyph>
    <TTGlyph name="Aacute" xMin="50" yMin="244" xMax="200" yMax="374">
      <contour>
        <pt x="50" y="244" on="1"/>
        <pt x="50" y="374" on="1"/>
        <pt x="200" y="374" on="1"/>
        <pt x="200" y="244" on="1"/>
      </contour>
    </TTGlyph>
    <TTGlyph name="Acircumflex" xMin="50" yMin="244" xMax="200" yMax="374">
      <contour>
        <pt x="50" y="244" on="1"/>
        <pt x="50" y="374" on="1"/>
        <pt x="200" y="374" on="1"/>
        <pt x="200" y="244" on="1"/>
      </contour>
    </TTGlyph>
    <TTGlyph name="Adieresis" xMin="50" yMin="244" xMax="200" yMax="374">
      <contour>
        <pt x="50" y="244" on="1"/>
        <pt x="50" y="374" on="1"/>
        <pt x="200" y="374" on="1"/>
        <pt x="200" y="244" on="1"/>
      </contour>
    </TTGlyph>
    <TTGlyph name="Agrave" xMin="50" yMin="244" xMax="200" yMax="374">
      <contour>
        <pt x="50" y="244" on="1"/>
        <pt x="50" y="374" on="1"/>
        <pt x="200" y="374" on="1"/>
        <pt x="200" y="244" on="1"/>
      </contour>
    </TTGlyph>
    <TTGlyph name="Aring" xMin="50" yMin="244" xMax="200" yMax="374">
      <contour>
        <pt x="50" y="244" on="1"/>
        <pt x="50" y="374" on="1"/>
        <pt x="200" y="374" on="1"/>
        <pt x="200" y="244" on="1"/>
      </contour>
    </TTGlyph>
    <TTGlyph name="Atilde" xMin="50" yMin="244" xMax="200" yMax="374">
      <contour>
        <pt x="50" y="244" on="1"/>
        <pt x="50" y="374" on="1"/>
        <pt x="200" y="374" on="1"/>
        <pt x="200" y="244" on="1"/>
      </contour>
    </TTGlyph>
    <TTGlyph name="B" xMin="69" yMin="205" xMax="342" yMax="700">
      <contour>
        <pt x="77" y="205" on="1"/>
        <pt x="77" y="305" on="1"/>
        <pt x="160" y="305" on="1"/>
        <pt x="160" y="597" on="1"/>
        <pt x="69" y="558" on="1"/>
        <pt x="69" y="662" on="1"/>
        <pt x="152" y="700" on="1"/>
        <pt x="275" y="700" on="1"/>
        <pt x="275" y="305" on="1"/>
        <pt x="342" y="305" on="1"/>
        <pt x="342" y="205" on="1"/>
      </contour>
    </TTGlyph>
    <TTGlyph name="C" xMin="57" yMin="205" xMax="333" yMax="707">
      <contour>
        <pt x="57" y="205" on="1"/>
        <pt x="57" y="309" on="1"/>
        <pt x="159" y="433" on="1"/>
        <pt x="176" y="452" on="0"/>
        <pt x="197" y="481" on="0"/>
        <pt x="208" y="509" on="0"/>
        <pt x="212" y="539" on="0"/>
        <pt x="212" y="557" on="1"/>
        <pt x="212" y="577" on="0"/>
        <pt x="187" y="610" on="0"/>
        <pt x="152" y="610" on="1"/>
        <pt x="128" y="610" on="0"/>
        <pt x="88" y="603" on="0"/>
        <pt x="70" y="599" on="1"/>
        <pt x="70" y="696" on="1"/>
        <pt x="73" y="696" on="0"/>
        <pt x="95" y="700" on="0"/>
        <pt x="124" y="704" on="0"/>
        <pt x="157" y="707" on="0"/>
        <pt x="172" y="707" on="1"/>
        <pt x="247" y="707" on="0"/>
        <pt x="327" y="623" on="0"/>
        <pt x="327" y="550" on="1"/>
        <pt x="327" y="467" on="0"/>
        <pt x="279" y="410" on="1"/>
        <pt x="189" y="303" on="1"/>
        <pt x="333" y="303" on="1"/>
        <pt x="333" y="205" on="1"/>
      </contour>
    </TTGlyph>
    <TTGlyph name="Ccedilla" xMin="50" yMin="244" xMax="200" yMax="374">
      <contour>
        <pt x="50" y="244" on="1"/>
        <pt x="50" y="374" on="1"/>
        <pt x="200" y="374" on="1"/>
        <pt x="200" y="244" on="1"/>
      </contour>
    </TTGlyph>
    <TTGlyph name="D" xMin="69" yMin="198" xMax="331" yMax="707">
      <contour>
        <pt x="331" y="361" on="1"/>
        <pt x="331" y="313" on="0"/>
        <pt x="308" y="250" on="0"/>
        <pt x="268" y="213" on="0"/>
        <pt x="211" y="198" on="0"/>
        <pt x="178" y="198" on="1"/>
        <pt x="164" y="198" on="0"/>
        <pt x="131" y="201" on="0"/>
        <pt x="99" y="204" on="0"/>
        <pt x="74" y="208" on="0"/>
        <pt x="69" y="209" on="1"/>
        <pt x="69" y="303" on="1"/>
        <pt x="83" y="300" on="0"/>
        <pt x="128" y="291" on="0"/>
        <pt x="153" y="291" on="1"/>
        <pt x="182" y="291" on="0"/>
        <pt x="216" y="321" on="0"/>
        <pt x="216" y="353" on="1"/>
        <pt x="216" y="424" on="0"/>
        <pt x="151" y="424" on="1"/>
        <pt x="108" y="424" on="1"/>
        <pt x="108" y="515" on="1"/>
        <pt x="144" y="515" on="1"/>
        <pt x="165" y="515" on="0"/>
        <pt x="190" y="524" on="0"/>
        <pt x="204" y="539" on="0"/>
        <pt x="208" y="559" on="0"/>
        <pt x="208" y="571" on="1"/>
        <pt x="208" y="614" on="0"/>
        <pt x="154" y="614" on="1"/>
        <pt x="133" y="614" on="0"/>
        <pt x="90" y="606" on="0"/>
        <pt x="73" y="602" on="1"/>
        <pt x="73" y="696" on="1"/>
        <pt x="76" y="697" on="0"/>
        <pt x="97" y="700" on="0"/>
        <pt x="126" y="704" on="0"/>
        <pt x="159" y="707" on="0"/>
        <pt x="174" y="707" on="1"/>
        <pt x="216" y="707" on="0"/>
        <pt x="273" y="690" on="0"/>
        <pt x="308" y="656" on="0"/>
        <pt x="322" y="602" on="0"/>
        <pt x="322" y="566" on="1"/>
        <pt x="322" y="537" on="0"/>
        <pt x="289" y="482" on="0"/>
        <pt x="259" y="472" on="1"/>
        <pt x="290" y="464" on="0"/>
        <pt x="331" y="401" on="0"/>
      </contour>
    </TTGlyph>
    <TTGlyph name="Delta" xMin="50" yMin="244" xMax="200" yMax="374">
      <contour>
        <pt x="50" y="244" on="1"/>
        <pt x="50" y="374" on="1"/>
        <pt x="200" y="374" on="1"/>
        <pt x="200" y="244" on="1"/>
      </contour>
    </TTGlyph>
    <TTGlyph name="E" xMin="56" yMin="205" xMax="359" yMax="700">
      <contour>
        <pt x="314" y="322" on="1"/>
        <pt x="314" y="205" on="1"/>
        <pt x="200" y="205" on="1"/>
        <pt x="200" y="322" on="1"/>
        <pt x="56" y="322" on="1"/>
        <pt x="56" y="426" on="1"/>
        <pt x="127" y="700" on="1"/>
        <pt x="236" y="700" on="1"/>
        <pt x="164" y="416" on="1"/>
        <pt x="202" y="416" on="1"/>
        <pt x="213" y="529" on="1"/>
        <pt x="314" y="529" on="1"/>
        <pt x="314" y="416" on="1"/>
        <pt x="359" y="416" on="1"/>
        <pt x="359" y="322" on="1"/>
      </contour>
    </TTGlyph>
    <TTGlyph name="Eacute" xMin="50" yMin="244" xMax="200" yMax="374">
      <contour>
        <pt x="50" y="244" on="1"/>
        <pt x="50" y="374" on="1"/>
        <pt x="200" y="374" on="1"/>
        <pt x="200" y="244" on="1"/>
      </contour>
    </TTGlyph>
    <TTGlyph name="Ecircumflex" xMin="50" yMin="244" xMax="200" yMax="374">
      <contour>
        <pt x="50" y="244" on="1"/>
        <pt x="50" y="374" on="1"/>
        <pt x="200" y="374" on="1"/>
        <pt x="200" y="244" on="1"/>
      </contour>
    </TTGlyph>
    <TTGlyph name="Edieresis" xMin="50" yMin="244" xMax="200" yMax="374">
      <contour>
        <pt x="50" y="244" on="1"/>
        <pt x="50" y="374" on="1"/>
        <pt x="200" y="374" on="1"/>
        <pt x="200" y="244" on="1"/>
      </contour>
    </TTGlyph>
    <TTGlyph name="Egrave" xMin="50" yMin="244" xMax="200" yMax="374">
      <contour>
        <pt x="50" y="244" on="1"/>
        <pt x="50" y="374" on="1"/>
        <pt x="200" y="374" on="1"/>
        <pt x="200" y="244" on="1"/>
      </contour>
    </TTGlyph>
    <TTGlyph name="Eth" xMin="50" yMin="244" xMax="200" yMax="374">
      <contour>
        <pt x="50" y="244" on="1"/>
        <pt x="50" y="374" on="1"/>
        <pt x="200" y="374" on="1"/>
        <pt x="200" y="244" on="1"/>
      </contour>
    </TTGlyph>
    <TTGlyph name="Euro" xMin="50" yMin="244" xMax="200" yMax="374">
      <contour>
        <pt x="50" y="244" on="1"/>
        <pt x="50" y="374" on="1"/>
        <pt x="200" y="374" on="1"/>
        <pt x="200" y="244" on="1"/>
      </contour>
    </TTGlyph>
    <TTGlyph name="F" xMin="76" yMin="198" xMax="333" yMax="700">
      <contour>
        <pt x="193" y="603" on="1"/>
        <pt x="193" y="521" on="1"/>
        <pt x="202" y="521" on="1"/>
        <pt x="246" y="521" on="0"/>
        <pt x="297" y="500" on="0"/>
        <pt x="325" y="459" on="0"/>
        <pt x="333" y="402" on="0"/>
        <pt x="333" y="366" on="1"/>
        <pt x="333" y="316" on="0"/>
        <pt x="311" y="251" on="0"/>
        <pt x="273" y="213" on="0"/>
        <pt x="221" y="198" on="0"/>
        <pt x="190" y="198" on="1"/>
        <pt x="175" y="198" on="0"/>
        <pt x="142" y="200" on="0"/>
        <pt x="111" y="204" on="0"/>
        <pt x="84" y="208" on="0"/>
        <pt x="76" y="209" on="1"/>
        <pt x="76" y="306" on="1"/>
        <pt x="86" y="304" on="0"/>
        <pt x="138" y="295" on="0"/>
        <pt x="170" y="295" on="1"/>
        <pt x="195" y="295" on="0"/>
        <pt x="219" y="332" on="0"/>
        <pt x="219" y="358" on="1"/>
        <pt x="219" y="377" on="0"/>
        <pt x="216" y="404" on="0"/>
        <pt x="204" y="420" on="0"/>
        <pt x="182" y="428" on="0"/>
        <pt x="163" y="428" on="1"/>
        <pt x="83" y="428" on="1"/>
        <pt x="83" y="700" on="1"/>
        <pt x="312" y="700" on="1"/>
        <pt x="312" y="603" on="1"/>
      </contour>
    </TTGlyph>
    <TTGlyph name="G" xMin="50" yMin="198" xMax="358" yMax="707">
      <contour>
        <pt x="358" y="363" on="1"/>
        <pt x="358" y="319" on="0"/>
        <pt x="335" y="257" on="0"/>
        <pt x="294" y="217" on="0"/>
        <pt x="237" y="198" on="0"/>
        <pt x="203" y="198" on="1"/>
        <pt x="164" y="198" on="0"/>
        <pt x="106" y="218" on="0"/>
        <pt x="68" y="277" on="0"/>
        <pt x="50" y="387" on="0"/>
        <pt x="50" y="477" on="1"/>
        <pt x="50" y="550" on="0"/>
        <pt x="77" y="640" on="0"/>
        <pt x="124" y="690" on="0"/>
        <pt x="189" y="707" on="0"/>
        <pt x="226" y="707" on="1"/>
        <pt x="259" y="707" on="0"/>
        <pt x="308" y="700" on="0"/>
        <pt x="318" y="698" on="1"/>
        <pt x="318" y="604" on="1"/>
        <pt x="303" y="608" on="0"/>
        <pt x="265" y="615" on="0"/>
        <pt x="241" y="615" on="1"/>
        <pt x="222" y="615" on="0"/>
        <pt x="196" y="609" on="0"/>
        <pt x="178" y="590" on="0"/>
        <pt x="168" y="555" on="0"/>
        <pt x="166" y="527" on="1"/>
        <pt x="178" y="532" on="0"/>
        <pt x="205" y="539" on="0"/>
        <pt x="221" y="539" on="1"/>
        <pt x="297" y="539" on="0"/>
        <pt x="358" y="450" on="0"/>
      </contour>
      <contour>
        <pt x="192" y="447" on="1"/>
        <pt x="176" y="447" on="0"/>
        <pt x="164" y="441" on="1"/>
        <pt x="164" y="390" on="0"/>
        <pt x="167" y="331" on="0"/>
        <pt x="176" y="301" on="0"/>
        <pt x="193" y="292" on="0"/>
        <pt x="206" y="292" on="1"/>
        <pt x="231" y="292" on="0"/>
        <pt x="244" y="329" on="0"/>
        <pt x="244" y="357" on="1"/>
        <pt x="244" y="385" on="0"/>
        <pt x="239" y="420" on="0"/>
        <pt x="227" y="440" on="0"/>
        <pt x="207" y="447" on="0"/>
      </contour>
    </TTGlyph>
    <TTGlyph name="H" xMin="75" yMin="205" xMax="336" yMax="700">
      <contour>
        <pt x="215" y="205" on="1"/>
        <pt x="101" y="205" on="1"/>
        <pt x="226" y="605" on="1"/>
        <pt x="75" y="605" on="1"/>
        <pt x="75" y="700" on="1"/>
        <pt x="336" y="700" on="1"/>
        <pt x="336" y="589" on="1"/>
      </contour>
    </TTGlyph>
    <TTGlyph name="I" xMin="38" yMin="198" xMax="372" yMax="707">
      <contour>
        <pt x="258" y="345" on="1"/>
        <pt x="258" y="362" on="0"/>
        <pt x="254" y="389" on="0"/>
        <pt x="239" y="409" on="0"/>
        <pt x="209" y="420" on="0"/>
        <pt x="183" y="420" on="1"/>
        <pt x="163" y="404" on="0"/>
        <pt x="153" y="373" on="0"/>
        <pt x="153" y="344" on="1"/>
        <pt x="153" y="322" on="0"/>
        <pt x="174" y="290" on="0"/>
        <pt x="205" y="290" on="1"/>
        <pt x="236" y="290" on="0"/>
        <pt x="258" y="322" on="0"/>
      </contour>
      <contour>
        <pt x="249" y="569" on="1"/>
        <pt x="247" y="595" on="0"/>
        <pt x="226" y="615" on="0"/>
        <pt x="205" y="615" on="1"/>
        <pt x="184" y="615" on="0"/>
        <pt x="161" y="595" on="0"/>
        <pt x="161" y="569" on="1"/>
        <pt x="161" y="542" on="0"/>
        <pt x="180" y="506" on="0"/>
        <pt x="217" y="506" on="1"/>
        <pt x="231" y="513" on="0"/>
        <pt x="250" y="537" on="0"/>
        <pt x="250" y="560" on="1"/>
        <pt x="250" y="562" on="0"/>
        <pt x="249" y="567" on="0"/>
      </contour>
      <contour>
        <pt x="372" y="353" on="1"/>
        <pt x="372" y="318" on="0"/>
        <pt x="355" y="261" on="0"/>
        <pt x="316" y="220" on="0"/>
        <pt x="252" y="198" on="0"/>
        <pt x="205" y="198" on="1"/>
        <pt x="158" y="198" on="0"/>
        <pt x="94" y="220" on="0"/>
        <pt x="55" y="261" on="0"/>
        <pt x="38" y="318" on="0"/>
        <pt x="38" y="353" on="1"/>
        <pt x="38" y="390" on="0"/>
        <pt x="72" y="442" on="0"/>
        <pt x="103" y="456" on="1"/>
        <pt x="48" y="484" on="0"/>
        <pt x="48" y="562" on="1"/>
        <pt x="48" y="631" on="0"/>
        <pt x="119" y="707" on="0"/>
        <pt x="205" y="707" on="1"/>
        <pt x="291" y="707" on="0"/>
        <pt x="362" y="633" on="0"/>
        <pt x="362" y="562" on="1"/>
        <pt x="362" y="550" on="0"/>
        <pt x="356" y="524" on="0"/>
        <pt x="342" y="498" on="0"/>
        <pt x="319" y="477" on="0"/>
        <pt x="303" y="471" on="1"/>
        <pt x="336" y="463" on="0"/>
        <pt x="372" y="399" on="0"/>
      </contour>
    </TTGlyph>
    <TTGlyph name="Iacute" xMin="50" yMin="244" xMax="200" yMax="374">
      <contour>
        <pt x="50" y="244" on="1"/>
        <pt x="50" y="374" on="1"/>
        <pt x="200" y="374" on="1"/>
        <pt x="200" y="244" on="1"/>
      </contour>
    </TTGlyph>
    <TTGlyph name="Icircumflex" xMin="50" yMin="244" xMax="200" yMax="374">
      <contour>
        <pt x="50" y="244" on="1"/>
        <pt x="50" y="374" on="1"/>
        <pt x="200" y="374" on="1"/>
        <pt x="200" y="244" on="1"/>
      </contour>
    </TTGlyph>
    <TTGlyph name="Idieresis" xMin="50" yMin="244" xMax="200" yMax="374">
      <contour>
        <pt x="50" y="244" on="1"/>
        <pt x="50" y="374" on="1"/>
        <pt x="200" y="374" on="1"/>
        <pt x="200" y="244" on="1"/>
      </contour>
    </TTGlyph>
    <TTGlyph name="Igrave" xMin="50" yMin="244" xMax="200" yMax="374">
      <contour>
        <pt x="50" y="244" on="1"/>
        <pt x="50" y="374" on="1"/>
        <pt x="200" y="374" on="1"/>
        <pt x="200" y="244" on="1"/>
      </contour>
    </TTGlyph>
    <TTGlyph name="J" xMin="82" yMin="199" xMax="389" yMax="708">
      <contour>
        <pt x="82" y="549" on="1"/>
        <pt x="82" y="590" on="0"/>
        <pt x="107" y="650" on="0"/>
        <pt x="149" y="689" on="0"/>
        <pt x="206" y="708" on="0"/>
        <pt x="238" y="708" on="1"/>
        <pt x="279" y="708" on="0"/>
        <pt x="336" y="686" on="0"/>
        <pt x="372" y="628" on="0"/>
        <pt x="389" y="527" on="0"/>
        <pt x="389" y="449" on="1"/>
        <pt x="389" y="367" on="0"/>
        <pt x="364" y="268" on="0"/>
        <pt x="318" y="215" on="0"/>
        <pt x="254" y="199" on="0"/>
        <pt x="215" y="199" on="1"/>
        <pt x="187" y="199" on="0"/>
        <pt x="140" y="206" on="0"/>
        <pt x="130" y="208" on="1"/>
        <pt x="130" y="302" on="1"/>
        <pt x="145" y="298" on="0"/>
        <pt x="180" y="291" on="0"/>
        <pt x="200" y="291" on="1"/>
        <pt x="219" y="291" on="0"/>
        <pt x="245" y="298" on="0"/>
        <pt x="261" y="317" on="0"/>
        <pt x="270" y="351" on="0"/>
        <pt x="272" y="379" on="1"/>
        <pt x="261" y="374" on="0"/>
        <pt x="234" y="368" on="0"/>
        <pt x="217" y="368" on="1"/>
        <pt x="141" y="368" on="0"/>
        <pt x="82" y="455" on="0"/>
      </contour>
      <contour>
        <pt x="246" y="459" on="1"/>
        <pt x="261" y="459" on="0"/>
        <pt x="274" y="465" on="1"/>
        <pt x="274" y="516" on="0"/>
        <pt x="270" y="575" on="0"/>
        <pt x="261" y="605" on="0"/>
        <pt x="246" y="614" on="0"/>
        <pt x="235" y="614" on="1"/>
        <pt x="212" y="614" on="0"/>
        <pt x="194" y="577" on="0"/>
        <pt x="194" y="549" on="1"/>
        <pt x="194" y="521" on="0"/>
        <pt x="199" y="486" on="0"/>
        <pt x="211" y="466" on="0"/>
        <pt x="231" y="459" on="0"/>
      </contour>
    </TTGlyph>
    <TTGlyph name="K" xMin="83" yMin="98" xMax="487" yMax="502">
      <contour>
        <pt x="200" y="300" on="1"/>
        <pt x="83" y="417" on="1"/>
        <pt x="168" y="502" on="1"/>
        <pt x="285" y="385" on="1"/>
        <pt x="402" y="502" on="1"/>
        <pt x="487" y="417" on="1"/>
        <pt x="370" y="300" on="1"/>
        <pt x="487" y="183" on="1"/>
        <pt x="402" y="98" on="1"/>
        <pt x="285" y="215" on="1"/>
        <pt x="168" y="98" on="1"/>
        <pt x="83" y="183" on="1"/>
      </contour>
    </TTGlyph>
    <TTGlyph name="L" xMin="35" yMin="-4" xMax="559" yMax="700">
      <contour>
        <pt x="469" y="585" on="1"/>
        <pt x="469" y="147" on="1"/>
        <pt x="469" y="129" on="0"/>
        <pt x="482" y="110" on="0"/>
        <pt x="502" y="110" on="1"/>
        <pt x="510" y="110" on="0"/>
        <pt x="525" y="112" on="0"/>
        <pt x="529" y="113" on="1"/>
        <pt x="529" y="3" on="1"/>
        <pt x="518" y="1" on="0"/>
        <pt x="470" y="-4" on="0"/>
        <pt x="447" y="-4" on="1"/>
        <pt x="413" y="-4" on="0"/>
        <pt x="369" y="20" on="0"/>
        <pt x="343" y="60" on="0"/>
        <pt x="334" y="113" on="0"/>
        <pt x="334" y="142" on="1"/>
        <pt x="334" y="585" on="1"/>
        <pt x="249" y="585" on="1"/>
        <pt x="249" y="0" on="1"/>
        <pt x="114" y="0" on="1"/>
        <pt x="114" y="585" on="1"/>
        <pt x="35" y="585" on="1"/>
        <pt x="35" y="700" on="1"/>
        <pt x="559" y="700" on="1"/>
        <pt x="559" y="585" on="1"/>
      </contour>
    </TTGlyph>
    <TTGlyph name="Lslash" xMin="50" yMin="244" xMax="200" yMax="374">
      <contour>
        <pt x="50" y="244" on="1"/>
        <pt x="50" y="374" on="1"/>
        <pt x="200" y="374" on="1"/>
        <pt x="200" y="244" on="1"/>
      </contour>
    </TTGlyph>
    <TTGlyph name="M" xMin="40" yMin="-170" xMax="425" yMax="700">
      <contour>
        <pt x="40" y="-170" on="1"/>
        <pt x="40" y="-36" on="1"/>
        <pt x="208" y="267" on="1"/>
        <pt x="53" y="565" on="1"/>
        <pt x="53" y="700" on="1"/>
        <pt x="414" y="700" on="1"/>
        <pt x="414" y="585" on="1"/>
        <pt x="191" y="585" on="1"/>
        <pt x="353" y="267" on="1"/>
        <pt x="176" y="-56" on="1"/>
        <pt x="425" y="-56" on="1"/>
        <pt x="425" y="-170" on="1"/>
      </contour>
    </TTGlyph>
    <TTGlyph name="N" xMin="34" yMin="156" xMax="695" yMax="504">
      <contour>
        <pt x="221" y="504" on="1"/>
        <pt x="263" y="504" on="0"/>
        <pt x="333" y="473" on="0"/>
        <pt x="359" y="439" on="1"/>
        <pt x="381" y="467" on="0"/>
        <pt x="457" y="504" on="0"/>
        <pt x="508" y="504" on="1"/>
        <pt x="559" y="504" on="0"/>
        <pt x="630" y="479" on="0"/>
        <pt x="675" y="433" on="0"/>
        <pt x="695" y="369" on="0"/>
        <pt x="695" y="330" on="1"/>
        <pt x="695" y="291" on="0"/>
        <pt x="675" y="227" on="0"/>
        <pt x="630" y="181" on="0"/>
        <pt x="559" y="156" on="0"/>
        <pt x="508" y="156" on="1"/>
        <pt x="466" y="156" on="0"/>
        <pt x="395" y="187" on="0"/>
        <pt x="369" y="220" on="1"/>
        <pt x="347" y="193" on="0"/>
        <pt x="272" y="156" on="0"/>
        <pt x="221" y="156" on="1"/>
        <pt x="170" y="156" on="0"/>
        <pt x="99" y="181" on="0"/>
        <pt x="54" y="227" on="0"/>
        <pt x="34" y="291" on="0"/>
        <pt x="34" y="330" on="1"/>
        <pt x="34" y="369" on="0"/>
        <pt x="54" y="433" on="0"/>
        <pt x="99" y="479" on="0"/>
        <pt x="170" y="504" on="0"/>
      </contour>
      <contour>
        <pt x="510" y="259" on="1"/>
        <pt x="536" y="259" on="0"/>
        <pt x="576" y="294" on="0"/>
        <pt x="576" y="330" on="1"/>
        <pt x="576" y="367" on="0"/>
        <pt x="536" y="401" on="0"/>
        <pt x="510" y="401" on="1"/>
        <pt x="492" y="401" on="0"/>
        <pt x="461" y="394" on="0"/>
        <pt x="438" y="376" on="0"/>
        <pt x="425" y="344" on="0"/>
        <pt x="425" y="320" on="1"/>
        <pt x="430" y="301" on="0"/>
        <pt x="449" y="278" on="0"/>
        <pt x="473" y="264" on="0"/>
        <pt x="498" y="259" on="0"/>
      </contour>
      <contour>
        <pt x="219" y="401" on="1"/>
        <pt x="193" y="401" on="0"/>
        <pt x="153" y="366" on="0"/>
        <pt x="153" y="330" on="1"/>
        <pt x="153" y="293" on="0"/>
        <pt x="193" y="259" on="0"/>
        <pt x="219" y="259" on="1"/>
        <pt x="237" y="259" on="0"/>
        <pt x="268" y="266" on="0"/>
        <pt x="291" y="284" on="0"/>
        <pt x="304" y="316" on="0"/>
        <pt x="304" y="340" on="1"/>
        <pt x="299" y="359" on="0"/>
        <pt x="280" y="383" on="0"/>
        <pt x="256" y="396" on="0"/>
        <pt x="231" y="401" on="0"/>
      </contour>
    </TTGlyph>
    <TTGlyph name="Ntilde" xMin="50" yMin="244" xMax="200" yMax="374">
      <contour>
        <pt x="50" y="244" on="1"/>
        <pt x="50" y="374" on="1"/>
        <pt x="200" y="374" on="1"/>
        <pt x="200" y="244" on="1"/>
      </contour>
    </TTGlyph>
    <TTGlyph name="O" xMin="55" yMin="118" xMax="530" yMax="630">
      <contour>
        <pt x="224" y="450" on="1"/>
        <pt x="55" y="322" on="1"/>
        <pt x="55" y="467" on="1"/>
        <pt x="292" y="630" on="1"/>
        <pt x="530" y="467" on="1"/>
        <pt x="530" y="322" on="1"/>
        <pt x="360" y="450" on="1"/>
        <pt x="360" y="118" on="1"/>
        <pt x="224" y="118" on="1"/>
      </contour>
    </TTGlyph>
    <TTGlyph name="OE" xMin="50" yMin="244" xMax="200" yMax="374">
      <contour>
        <pt x="50" y="244" on="1"/>
        <pt x="50" y="374" on="1"/>
        <pt x="200" y="374" on="1"/>
        <pt x="200" y="244" on="1"/>
      </contour>
    </TTGlyph>
    <TTGlyph name="Oacute" xMin="50" yMin="244" xMax="200" yMax="374">
      <contour>
        <pt x="50" y="244" on="1"/>
        <pt x="50" y="374" on="1"/>
        <pt x="200" y="374" on="1"/>
        <pt x="200" y="244" on="1"/>
      </contour>
    </TTGlyph>
    <TTGlyph name="Ocircumflex" xMin="50" yMin="244" xMax="200" yMax="374">
      <contour>
        <pt x="50" y="244" on="1"/>
        <pt x="50" y="374" on="1"/>
        <pt x="200" y="374" on="1"/>
        <pt x="200" y="244" on="1"/>
      </contour>
    </TTGlyph>
    <TTGlyph name="Odieresis" xMin="50" yMin="244" xMax="200" yMax="374">
      <contour>
        <pt x="50" y="244" on="1"/>
        <pt x="50" y="374" on="1"/>
        <pt x="200" y="374" on="1"/>
        <pt x="200" y="244" on="1"/>
      </contour>
    </TTGlyph>
    <TTGlyph name="Ograve" xMin="50" yMin="244" xMax="200" yMax="374">
      <contour>
        <pt x="50" y="244" on="1"/>
        <pt x="50" y="374" on="1"/>
        <pt x="200" y="374" on="1"/>
        <pt x="200" y="244" on="1"/>
      </contour>
    </TTGlyph>
    <TTGlyph name="Omega" xMin="50" yMin="244" xMax="200" yMax="374">
      <contour>
        <pt x="50" y="244" on="1"/>
        <pt x="50" y="374" on="1"/>
        <pt x="200" y="374" on="1"/>
        <pt x="200" y="244" on="1"/>
      </contour>
    </TTGlyph>
    <TTGlyph name="Oslash" xMin="50" yMin="244" xMax="200" yMax="374">
      <contour>
        <pt x="50" y="244" on="1"/>
        <pt x="50" y="374" on="1"/>
        <pt x="200" y="374" on="1"/>
        <pt x="200" y="244" on="1"/>
      </contour>
    </TTGlyph>
    <TTGlyph name="Otilde" xMin="50" yMin="244" xMax="200" yMax="374">
      <contour>
        <pt x="50" y="244" on="1"/>
        <pt x="50" y="374" on="1"/>
        <pt x="200" y="374" on="1"/>
        <pt x="200" y="244" on="1"/>
      </contour>
    </TTGlyph>
    <TTGlyph name="P" xMin="37" yMin="137" xMax="549" yMax="612">
      <contour>
        <pt x="359" y="438" on="1"/>
        <pt x="231" y="612" on="1"/>
        <pt x="386" y="612" on="1"/>
        <pt x="549" y="375" on="1"/>
        <pt x="386" y="137" on="1"/>
        <pt x="231" y="137" on="1"/>
        <pt x="359" y="312" on="1"/>
        <pt x="37" y="312" on="1"/>
        <pt x="37" y="438" on="1"/>
      </contour>
    </TTGlyph>
    <TTGlyph name="Q" xMin="66" yMin="147" xMax="526" yMax="608">
      <contour>
        <pt x="203" y="379" on="1"/>
        <pt x="172" y="166" on="1"/>
        <pt x="66" y="272" on="1"/>
        <pt x="118" y="555" on="1"/>
        <pt x="402" y="608" on="1"/>
        <pt x="508" y="502" on="1"/>
        <pt x="295" y="470" on="1"/>
        <pt x="526" y="239" on="1"/>
        <pt x="434" y="147" on="1"/>
      </contour>
    </TTGlyph>
    <TTGlyph name="R" xMin="65" yMin="148" xMax="526" yMax="608">
      <contour>
        <pt x="297" y="471" on="1"/>
        <pt x="84" y="502" on="1"/>
        <pt x="190" y="608" on="1"/>
        <pt x="473" y="556" on="1"/>
        <pt x="526" y="272" on="1"/>
        <pt x="420" y="166" on="1"/>
        <pt x="388" y="379" on="1"/>
        <pt x="157" y="148" on="1"/>
        <pt x="65" y="240" on="1"/>
      </contour>
    </TTGlyph>
    <TTGlyph name="S" xMin="90" yMin="0" xMax="690" yMax="700">
      <contour>
        <pt x="90" y="0" on="1"/>
        <pt x="90" y="700" on="1"/>
        <pt x="690" y="700" on="1"/>
        <pt x="690" y="0" on="1"/>
      </contour>
      <contour>
        <pt x="553" y="581" on="1"/>
        <pt x="227" y="581" on="1"/>
        <pt x="227" y="119" on="1"/>
        <pt x="553" y="119" on="1"/>
      </contour>
    </TTGlyph>
    <TTGlyph name="Scaron" xMin="50" yMin="244" xMax="200" yMax="374">
      <contour>
        <pt x="50" y="244" on="1"/>
        <pt x="50" y="374" on="1"/>
        <pt x="200" y="374" on="1"/>
        <pt x="200" y="244" on="1"/>
      </contour>
    </TTGlyph>
    <TTGlyph name="T" xMin="90" yMin="-170" xMax="690" yMax="850">
      <contour>
        <pt x="90" y="-170" on="1"/>
        <pt x="90" y="850" on="1"/>
        <pt x="690" y="850" on="1"/>
        <pt x="690" y="-170" on="1"/>
      </contour>
      <contour>
        <pt x="553" y="731" on="1"/>
        <pt x="227" y="731" on="1"/>
        <pt x="227" y="-51" on="1"/>
        <pt x="553" y="-51" on="1"/>
      </contour>
    </TTGlyph>
    <TTGlyph name="Thorn" xMin="50" yMin="244" xMax="200" yMax="374">
      <contour>
        <pt x="50" y="244" on="1"/>
        <pt x="50" y="374" on="1"/>
        <pt x="200" y="374" on="1"/>
        <pt x="200" y="244" on="1"/>
      </contour>
    </TTGlyph>
    <TTGlyph name="U" xMin="30" yMin="-10" xMax="511" yMax="710">
      <contour>
        <pt x="511" y="361" on="1"/>
        <pt x="511" y="249" on="0"/>
        <pt x="481" y="105" on="0"/>
        <pt x="421" y="22" on="0"/>
        <pt x="332" y="-10" on="0"/>
        <pt x="274" y="-10" on="1"/>
        <pt x="248" y="-10" on="0"/>
        <pt x="182" y="-7" on="0"/>
        <pt x="153" y="-5" on="1"/>
        <pt x="120" y="-2" on="0"/>
        <pt x="85" y="0" on="1"/>
        <pt x="85" y="325" on="1"/>
        <pt x="30" y="325" on="1"/>
        <pt x="30" y="440" on="1"/>
        <pt x="85" y="440" on="1"/>
        <pt x="85" y="700" on="1"/>
        <pt x="120" y="702" on="0"/>
        <pt x="153" y="705" on="1"/>
        <pt x="181" y="707" on="0"/>
        <pt x="241" y="710" on="0"/>
        <pt x="262" y="710" on="1"/>
        <pt x="322" y="710" on="0"/>
        <pt x="415" y="684" on="0"/>
        <pt x="478" y="608" on="0"/>
        <pt x="511" y="472" on="0"/>
      </contour>
      <contour>
        <pt x="372" y="354" on="1"/>
        <pt x="372" y="435" on="0"/>
        <pt x="361" y="528" on="0"/>
        <pt x="340" y="576" on="0"/>
        <pt x="307" y="589" on="0"/>
        <pt x="284" y="589" on="1"/>
        <pt x="270" y="589" on="0"/>
        <pt x="247" y="588" on="0"/>
        <pt x="239" y="587" on="1"/>
        <pt x="229" y="586" on="0"/>
        <pt x="222" y="585" on="1"/>
        <pt x="222" y="440" on="1"/>
        <pt x="305" y="440" on="1"/>
        <pt x="305" y="325" on="1"/>
        <pt x="222" y="325" on="1"/>
        <pt x="222" y="115" on="1"/>
        <pt x="228" y="114" on="0"/>
        <pt x="237" y="113" on="1"/>
        <pt x="245" y="112" on="0"/>
        <pt x="267" y="111" on="0"/>
        <pt x="283" y="111" on="1"/>
        <pt x="306" y="111" on="0"/>
        <pt x="340" y="133" on="0"/>
        <pt x="362" y="188" on="0"/>
        <pt x="372" y="282" on="0"/>
      </contour>
    </TTGlyph>
    <TTGlyph name="Uacute" xMin="50" yMin="244" xMax="200" yMax="374">
      <contour>
        <pt x="50" y="244" on="1"/>
        <pt x="50" y="374" on="1"/>
        <pt x="200" y="374" on="1"/>
        <pt x="200" y="244" on="1"/>
      </contour>
    </TTGlyph>
    <TTGlyph name="Ucircumflex" xMin="50" yMin="244" xMax="200" yMax="374">
      <contour>
        <pt x="50" y="244" on="1"/>
        <pt x="50" y="374" on="1"/>
        <pt x="200" y="374" on="1"/>
        <pt x="200" y="244" on="1"/>
      </contour>
    </TTGlyph>
    <TTGlyph name="Udieresis" xMin="50" yMin="244" xMax="200" yMax="374">
      <contour>
        <pt x="50" y="244" on="1"/>
        <pt x="50" y="374" on="1"/>
        <pt x="200" y="374" on="1"/>
        <pt x="200" y="244" on="1"/>
      </contour>
    </TTGlyph>
    <TTGlyph name="Ugrave" xMin="50" yMin="244" xMax="200" yMax="374">
      <contour>
        <pt x="50" y="244" on="1"/>
        <pt x="50" y="374" on="1"/>
        <pt x="200" y="374" on="1"/>
        <pt x="200" y="244" on="1"/>
      </contour>
    </TTGlyph>
    <TTGlyph name="V" xMin="20" yMin="0" xMax="420" yMax="700">
      <contour>
        <pt x="80" y="0" on="1"/>
        <pt x="80" y="320" on="1"/>
        <pt x="20" y="290" on="1"/>
        <pt x="20" y="408" on="1"/>
        <pt x="80" y="439" on="1"/>
        <pt x="80" y="700" on="1"/>
        <pt x="217" y="700" on="1"/>
        <pt x="217" y="509" on="1"/>
        <pt x="305" y="555" on="1"/>
        <pt x="305" y="435" on="1"/>
        <pt x="217" y="390" on="1"/>
        <pt x="217" y="116" on="1"/>
        <pt x="420" y="116" on="1"/>
        <pt x="420" y="0" on="1"/>
      </contour>
    </TTGlyph>
    <TTGlyph name="W" xMin="70" yMin="0" xMax="485" yMax="700">
      <contour>
        <pt x="485" y="360" on="1"/>
        <pt x="485" y="294" on="0"/>
        <pt x="457" y="204" on="0"/>
        <pt x="401" y="148" on="0"/>
        <pt x="318" y="124" on="0"/>
        <pt x="264" y="124" on="1"/>
        <pt x="207" y="124" on="1"/>
        <pt x="207" y="0" on="1"/>
        <pt x="70" y="0" on="1"/>
        <pt x="70" y="700" on="1"/>
        <pt x="207" y="700" on="1"/>
        <pt x="207" y="592" on="1"/>
        <pt x="219" y="592" on="0"/>
        <pt x="242" y="593" on="0"/>
        <pt x="254" y="593" on="1"/>
        <pt x="322" y="593" on="0"/>
        <pt x="411" y="562" on="0"/>
        <pt x="464" y="503" on="0"/>
        <pt x="485" y="416" on="0"/>
      </contour>
      <contour>
        <pt x="346" y="353" on="1"/>
        <pt x="346" y="412" on="0"/>
        <pt x="315" y="473" on="0"/>
        <pt x="272" y="473" on="1"/>
        <pt x="240" y="473" on="0"/>
        <pt x="223" y="470" on="1"/>
        <pt x="213" y="468" on="0"/>
        <pt x="207" y="467" on="1"/>
        <pt x="207" y="242" on="1"/>
        <pt x="270" y="242" on="1"/>
        <pt x="305" y="242" on="0"/>
        <pt x="346" y="302" on="0"/>
      </contour>
    </TTGlyph>
    <TTGlyph name="X" xMin="25" yMin="-7" xMax="410" yMax="845">
      <contour>
        <pt x="184" y="845" on="1"/>
        <pt x="224" y="784" on="1"/>
        <pt x="264" y="845" on="1"/>
        <pt x="410" y="845" on="1"/>
        <pt x="300" y="730" on="1"/>
        <pt x="148" y="730" on="1"/>
        <pt x="37" y="845" on="1"/>
      </contour>
      <contour>
        <pt x="404" y="208" on="1"/>
        <pt x="404" y="138" on="0"/>
        <pt x="369" y="53" on="0"/>
        <pt x="308" y="7" on="0"/>
        <pt x="223" y="-7" on="0"/>
        <pt x="173" y="-7" on="1"/>
        <pt x="157" y="-7" on="0"/>
        <pt x="118" y="-5" on="0"/>
        <pt x="79" y="-1" on="0"/>
        <pt x="44" y="5" on="0"/>
        <pt x="31" y="8" on="1"/>
        <pt x="31" y="127" on="1"/>
        <pt x="43" y="124" on="0"/>
        <pt x="76" y="118" on="0"/>
        <pt x="112" y="114" on="0"/>
        <pt x="148" y="111" on="0"/>
        <pt x="163" y="111" on="1"/>
        <pt x="210" y="111" on="0"/>
        <pt x="265" y="150" on="0"/>
        <pt x="265" y="198" on="1"/>
        <pt x="265" y="225" on="0"/>
        <pt x="254" y="263" on="0"/>
        <pt x="232" y="287" on="0"/>
        <pt x="200" y="301" on="0"/>
        <pt x="180" y="305" on="1"/>
        <pt x="96" y="322" on="0"/>
        <pt x="25" y="418" on="0"/>
        <pt x="25" y="506" on="1"/>
        <pt x="25" y="562" on="0"/>
        <pt x="56" y="638" on="0"/>
        <pt x="117" y="686" on="0"/>
        <pt x="206" y="707" on="0"/>
        <pt x="263" y="707" on="1"/>
        <pt x="277" y="707" on="0"/>
        <pt x="311" y="705" on="0"/>
        <pt x="345" y="700" on="0"/>
        <pt x="376" y="695" on="0"/>
        <pt x="387" y="692" on="1"/>
        <pt x="387" y="574" on="1"/>
        <pt x="374" y="577" on="0"/>
        <pt x="339" y="582" on="0"/>
        <pt x="302" y="587" on="0"/>
        <pt x="266" y="589" on="0"/>
        <pt x="253" y="589" on="1"/>
        <pt x="210" y="589" on="0"/>
        <pt x="164" y="555" on="0"/>
        <pt x="164" y="517" on="1"/>
        <pt x="164" y="493" on="0"/>
        <pt x="171" y="462" on="0"/>
        <pt x="189" y="443" on="0"/>
        <pt x="219" y="431" on="0"/>
        <pt x="243" y="426" on="1"/>
        <pt x="279" y="419" on="0"/>
        <pt x="338" y="390" on="0"/>
        <pt x="381" y="340" on="0"/>
        <pt x="404" y="264" on="0"/>
      </contour>
    </TTGlyph>
    <TTGlyph name="Y" xMin="10" yMin="0" xMax="521" yMax="841">
      <contour>
        <pt x="196" y="726" on="1"/>
        <pt x="300" y="841" on="1"/>
        <pt x="461" y="841" on="1"/>
        <pt x="309" y="726" on="1"/>
      </contour>
      <contour>
        <pt x="334" y="308" on="1"/>
        <pt x="334" y="0" on="1"/>
        <pt x="194" y="0" on="1"/>
        <pt x="194" y="308" on="1"/>
        <pt x="10" y="700" on="1"/>
        <pt x="158" y="700" on="1"/>
        <pt x="269" y="430" on="1"/>
        <pt x="380" y="700" on="1"/>
        <pt x="521" y="700" on="1"/>
      </contour>
    </TTGlyph>
    <TTGlyph name="Yacute" xMin="50" yMin="244" xMax="200" yMax="374">
      <contour>
        <pt x="50" y="244" on="1"/>
        <pt x="50" y="374" on="1"/>
        <pt x="200" y="374" on="1"/>
        <pt x="200" y="244" on="1"/>
      </contour>
    </TTGlyph>
    <TTGlyph name="Ydieresis" xMin="50" yMin="244" xMax="200" yMax="374">
      <contour>
        <pt x="50" y="244" on="1"/>
        <pt x="50" y="374" on="1"/>
        <pt x="200" y="374" on="1"/>
        <pt x="200" y="244" on="1"/>
      </contour>
    </TTGlyph>
    <TTGlyph name="Z" xMin="35" yMin="0" xMax="433" yMax="845">
      <contour>
        <pt x="207" y="845" on="1"/>
        <pt x="247" y="784" on="1"/>
        <pt x="287" y="845" on="1"/>
        <pt x="433" y="845" on="1"/>
        <pt x="323" y="730" on="1"/>
        <pt x="171" y="730" on="1"/>
        <pt x="60" y="845" on="1"/>
      </contour>
      <contour>
        <pt x="184" y="119" on="1"/>
        <pt x="421" y="119" on="1"/>
        <pt x="421" y="0" on="1"/>
        <pt x="35" y="0" on="1"/>
        <pt x="35" y="133" on="1"/>
        <pt x="283" y="581" on="1"/>
        <pt x="58" y="581" on="1"/>
        <pt x="58" y="700" on="1"/>
        <pt x="431" y="700" on="1"/>
        <pt x="431" y="567" on="1"/>
      </contour>
    </TTGlyph>
    <TTGlyph name="Zcaron" xMin="50" yMin="244" xMax="200" yMax="374">
      <contour>
        <pt x="50" y="244" on="1"/>
        <pt x="50" y="374" on="1"/>
        <pt x="200" y="374" on="1"/>
        <pt x="200" y="244" on="1"/>
      </contour>
    </TTGlyph>
    <TTGlyph name="a" xMin="46" yMin="-5" xMax="363" yMax="500">
      <contour>
        <pt x="249" y="250" on="1"/>
        <pt x="249" y="300" on="0"/>
        <pt x="246" y="360" on="0"/>
        <pt x="237" y="393" on="0"/>
        <pt x="220" y="404" on="0"/>
        <pt x="205" y="404" on="1"/>
        <pt x="190" y="404" on="0"/>
        <pt x="173" y="393" on="0"/>
        <pt x="163" y="360" on="0"/>
        <pt x="160" y="300" on="0"/>
        <pt x="160" y="250" on="1"/>
        <pt x="160" y="199" on="0"/>
        <pt x="163" y="137" on="0"/>
        <pt x="173" y="103" on="0"/>
        <pt x="190" y="91" on="0"/>
        <pt x="205" y="91" on="1"/>
        <pt x="220" y="91" on="0"/>
        <pt x="237" y="103" on="0"/>
        <pt x="246" y="137" on="0"/>
        <pt x="249" y="199" on="0"/>
      </contour>
      <contour>
        <pt x="363" y="254" on="1"/>
        <pt x="363" y="185" on="0"/>
        <pt x="349" y="87" on="0"/>
        <pt x="313" y="24" on="0"/>
        <pt x="252" y="-5" on="0"/>
        <pt x="205" y="-5" on="1"/>
        <pt x="158" y="-5" on="0"/>
        <pt x="96" y="24" on="0"/>
        <pt x="60" y="87" on="0"/>
        <pt x="46" y="185" on="0"/>
        <pt x="46" y="254" on="1"/>
        <pt x="46" y="320" on="0"/>
        <pt x="61" y="413" on="0"/>
        <pt x="97" y="473" on="0"/>
        <pt x="159" y="500" on="0"/>
        <pt x="205" y="500" on="1"/>
        <pt x="252" y="500" on="0"/>
        <pt x="313" y="473" on="0"/>
        <pt x="349" y="413" on="0"/>
        <pt x="363" y="320" on="0"/>
      </contour>
    </TTGlyph>
    <TTGlyph name="aacute" xMin="50" yMin="244" xMax="200" yMax="374">
      <contour>
        <pt x="50" y="244" on="1"/>
        <pt x="50" y="374" on="1"/>
        <pt x="200" y="374" on="1"/>
        <pt x="200" y="244" on="1"/>
      </contour>
    </TTGlyph>
    <TTGlyph name="acircumflex" xMin="50" yMin="244" xMax="200" yMax="374">
      <contour>
        <pt x="50" y="244" on="1"/>
        <pt x="50" y="374" on="1"/>
        <pt x="200" y="374" on="1"/>
        <pt x="200" y="244" on="1"/>
      </contour>
    </TTGlyph>
    <TTGlyph name="acute" xMin="50" yMin="244" xMax="200" yMax="374">
      <contour>
        <pt x="50" y="244" on="1"/>
        <pt x="50" y="374" on="1"/>
        <pt x="200" y="374" on="1"/>
        <pt x="200" y="244" on="1"/>
      </contour>
    </TTGlyph>
    <TTGlyph name="adieresis" xMin="50" yMin="244" xMax="200" yMax="374">
      <contour>
        <pt x="50" y="244" on="1"/>
        <pt x="50" y="374" on="1"/>
        <pt x="200" y="374" on="1"/>
        <pt x="200" y="244" on="1"/>
      </contour>
    </TTGlyph>
    <TTGlyph name="ae" xMin="50" yMin="244" xMax="200" yMax="374">
      <contour>
        <pt x="50" y="244" on="1"/>
        <pt x="50" y="374" on="1"/>
        <pt x="200" y="374" on="1"/>
        <pt x="200" y="244" on="1"/>
      </contour>
    </TTGlyph>
    <TTGlyph name="agrave" xMin="50" yMin="244" xMax="200" yMax="374">
      <contour>
        <pt x="50" y="244" on="1"/>
        <pt x="50" y="374" on="1"/>
        <pt x="200" y="374" on="1"/>
        <pt x="200" y="244" on="1"/>
      </contour>
    </TTGlyph>
    <TTGlyph name="ampersand" xMin="60" yMin="-200" xMax="203" yMax="-85">
      <contour>
        <pt x="203" y="-85" on="1"/>
        <pt x="203" y="-200" on="1"/>
        <pt x="60" y="-200" on="1"/>
        <pt x="60" y="-85" on="1"/>
      </contour>
    </TTGlyph>
    <TTGlyph name="approxequal" xMin="50" yMin="244" xMax="200" yMax="374">
      <contour>
        <pt x="50" y="244" on="1"/>
        <pt x="50" y="374" on="1"/>
        <pt x="200" y="374" on="1"/>
        <pt x="200" y="244" on="1"/>
      </contour>
    </TTGlyph>
    <TTGlyph name="aring" xMin="50" yMin="244" xMax="200" yMax="374">
      <contour>
        <pt x="50" y="244" on="1"/>
        <pt x="50" y="374" on="1"/>
        <pt x="200" y="374" on="1"/>
        <pt x="200" y="244" on="1"/>
      </contour>
    </TTGlyph>
    <TTGlyph name="asciicircum" xMin="25" yMin="-5" xMax="815" yMax="709">
      <contour>
        <pt x="815" y="3" on="1"/>
        <pt x="804" y="1" on="0"/>
        <pt x="753" y="-5" on="0"/>
        <pt x="724" y="-5" on="1"/>
        <pt x="662" y="-5" on="0"/>
        <pt x="615" y="70" on="0"/>
        <pt x="615" y="148" on="1"/>
        <pt x="615" y="387" on="1"/>
        <pt x="493" y="387" on="1"/>
        <pt x="493" y="0" on="1"/>
        <pt x="360" y="0" on="1"/>
        <pt x="360" y="387" on="1"/>
        <pt x="223" y="387" on="1"/>
        <pt x="223" y="0" on="1"/>
        <pt x="90" y="0" on="1"/>
        <pt x="90" y="387" on="1"/>
        <pt x="25" y="387" on="1"/>
        <pt x="25" y="500" on="1"/>
        <pt x="90" y="500" on="1"/>
        <pt x="90" y="525" on="1"/>
        <pt x="90" y="576" on="0"/>
        <pt x="111" y="642" on="0"/>
        <pt x="154" y="680" on="0"/>
        <pt x="218" y="694" on="0"/>
        <pt x="261" y="694" on="1"/>
        <pt x="299" y="694" on="0"/>
        <pt x="377" y="686" on="0"/>
        <pt x="409" y="681" on="1"/>
        <pt x="431" y="697" on="0"/>
        <pt x="491" y="709" on="0"/>
        <pt x="531" y="709" on="1"/>
        <pt x="554" y="709" on="0"/>
        <pt x="601" y="703" on="0"/>
        <pt x="615" y="700" on="1"/>
        <pt x="748" y="700" on="1"/>
        <pt x="748" y="153" on="1"/>
        <pt x="748" y="129" on="0"/>
        <pt x="760" y="110" on="0"/>
        <pt x="779" y="110" on="1"/>
        <pt x="790" y="110" on="0"/>
        <pt x="811" y="113" on="0"/>
        <pt x="815" y="114" on="1"/>
      </contour>
      <contour>
        <pt x="493" y="500" on="1"/>
        <pt x="615" y="500" on="1"/>
        <pt x="615" y="590" on="1"/>
        <pt x="601" y="592" on="0"/>
        <pt x="571" y="595" on="0"/>
        <pt x="556" y="595" on="1"/>
        <pt x="518" y="595" on="0"/>
        <pt x="493" y="578" on="0"/>
        <pt x="493" y="549" on="1"/>
      </contour>
      <contour>
        <pt x="360" y="540" on="1"/>
        <pt x="360" y="550" on="0"/>
        <pt x="360" y="567" on="0"/>
        <pt x="361" y="575" on="1"/>
        <pt x="344" y="577" on="0"/>
        <pt x="306" y="580" on="0"/>
        <pt x="286" y="580" on="1"/>
        <pt x="248" y="580" on="0"/>
        <pt x="223" y="563" on="0"/>
        <pt x="223" y="534" on="1"/>
        <pt x="223" y="500" on="1"/>
        <pt x="360" y="500" on="1"/>
        <pt x="360" y="540" on="1"/>
      </contour>
    </TTGlyph>
    <TTGlyph name="asciitilde" xMin="70" yMin="151" xMax="617" yMax="514">
      <contour>
        <pt x="359" y="151" on="1"/>
        <pt x="359" y="275" on="1"/>
        <pt x="70" y="275" on="1"/>
        <pt x="70" y="390" on="1"/>
        <pt x="359" y="390" on="1"/>
        <pt x="359" y="514" on="1"/>
        <pt x="617" y="333" on="1"/>
      </contour>
    </TTGlyph>
    <TTGlyph name="asterisk" xMin="25" yMin="598" xMax="493" yMax="745">
      <contour>
        <pt x="131" y="598" on="1"/>
        <pt x="25" y="598" on="1"/>
        <pt x="128" y="745" on="1"/>
        <pt x="298" y="745" on="1"/>
      </contour>
      <contour>
        <pt x="326" y="598" on="1"/>
        <pt x="220" y="598" on="1"/>
        <pt x="323" y="745" on="1"/>
        <pt x="493" y="745" on="1"/>
      </contour>
    </TTGlyph>
    <TTGlyph name="at" xMin="70" yMin="-9" xMax="740" yMax="709">
      <contour>
        <pt x="740" y="350" on="1"/>
        <pt x="740" y="267" on="0"/>
        <pt x="708" y="134" on="0"/>
        <pt x="632" y="41" on="0"/>
        <pt x="505" y="-9" on="0"/>
        <pt x="410" y="-9" on="1"/>
        <pt x="315" y="-9" on="0"/>
        <pt x="185" y="40" on="0"/>
        <pt x="105" y="132" on="0"/>
        <pt x="70" y="265" on="0"/>
        <pt x="70" y="350" on="1"/>
        <pt x="70" y="433" on="0"/>
        <pt x="105" y="566" on="0"/>
        <pt x="186" y="659" on="0"/>
        <pt x="316" y="709" on="0"/>
        <pt x="410" y="709" on="1"/>
        <pt x="505" y="709" on="0"/>
        <pt x="631" y="659" on="0"/>
        <pt x="708" y="565" on="0"/>
        <pt x="740" y="433" on="0"/>
      </contour>
      <contour>
        <pt x="623" y="350" on="1"/>
        <pt x="623" y="416" on="0"/>
        <pt x="610" y="514" on="0"/>
        <pt x="566" y="579" on="0"/>
        <pt x="481" y="611" on="0"/>
        <pt x="410" y="611" on="1"/>
        <pt x="339" y="611" on="0"/>
        <pt x="251" y="580" on="0"/>
        <pt x="203" y="515" on="0"/>
        <pt x="187" y="417" on="0"/>
        <pt x="187" y="350" on="1"/>
        <pt x="187" y="284" on="0"/>
        <pt x="203" y="185" on="0"/>
        <pt x="251" y="121" on="0"/>
        <pt x="339" y="89" on="0"/>
        <pt x="410" y="89" on="1"/>
        <pt x="481" y="89" on="0"/>
        <pt x="566" y="121" on="0"/>
        <pt x="610" y="186" on="0"/>
        <pt x="623" y="284" on="0"/>
      </contour>
      <contour>
        <pt x="455" y="423" on="1"/>
        <pt x="455" y="453" on="0"/>
        <pt x="441" y="478" on="0"/>
        <pt x="414" y="478" on="1"/>
        <pt x="412" y="478" on="0"/>
        <pt x="405" y="478" on="0"/>
        <pt x="401" y="477" on="1"/>
        <pt x="397" y="476" on="0"/>
        <pt x="393" y="476" on="1"/>
        <pt x="393" y="370" on="1"/>
        <pt x="407" y="370" on="1"/>
        <pt x="434" y="370" on="0"/>
        <pt x="455" y="391" on="0"/>
      </contour>
      <contour>
        <pt x="540" y="425" on="1"/>
        <pt x="540" y="390" on="0"/>
        <pt x="522" y="341" on="0"/>
        <pt x="491" y="311" on="0"/>
        <pt x="448" y="298" on="0"/>
        <pt x="422" y="298" on="1"/>
        <pt x="393" y="298" on="1"/>
        <pt x="393" y="159" on="1"/>
        <pt x="310" y="159" on="1"/>
        <pt x="310" y="544" on="1"/>
        <pt x="329" y="545" on="0"/>
        <pt x="348" y="546" on="1"/>
        <pt x="365" y="547" on="0"/>
        <pt x="403" y="548" on="0"/>
        <pt x="420" y="548" on="1"/>
        <pt x="455" y="548" on="0"/>
        <pt x="501" y="530" on="0"/>
        <pt x="529" y="498" on="0"/>
        <pt x="540" y="452" on="0"/>
      </contour>
    </TTGlyph>
    <TTGlyph name="atilde" xMin="50" yMin="244" xMax="200" yMax="374">
      <contour>
        <pt x="50" y="244" on="1"/>
        <pt x="50" y="374" on="1"/>
        <pt x="200" y="374" on="1"/>
        <pt x="200" y="244" on="1"/>
      </contour>
    </TTGlyph>
    <TTGlyph name="b" xMin="69" yMin="0" xMax="342" yMax="495">
      <contour>
        <pt x="77" y="0" on="1"/>
        <pt x="77" y="100" on="1"/>
        <pt x="160" y="100" on="1"/>
        <pt x="160" y="392" on="1"/>
        <pt x="69" y="353" on="1"/>
        <pt x="69" y="457" on="1"/>
        <pt x="152" y="495" on="1"/>
        <pt x="275" y="495" on="1"/>
        <pt x="275" y="100" on="1"/>
        <pt x="342" y="100" on="1"/>
        <pt x="342" y="0" on="1"/>
      </contour>
    </TTGlyph>
    <TTGlyph name="backslash" xMin="25" yMin="0" xMax="748" yMax="709">
      <contour>
        <pt x="615" y="0" on="1"/>
        <pt x="615" y="387" on="1"/>
        <pt x="492" y="387" on="1"/>
        <pt x="492" y="0" on="1"/>
        <pt x="359" y="0" on="1"/>
        <pt x="359" y="387" on="1"/>
        <pt x="223" y="387" on="1"/>
        <pt x="223" y="0" on="1"/>
        <pt x="90" y="0" on="1"/>
        <pt x="90" y="387" on="1"/>
        <pt x="25" y="387" on="1"/>
        <pt x="25" y="500" on="1"/>
        <pt x="90" y="500" on="1"/>
        <pt x="90" y="525" on="1"/>
        <pt x="90" y="576" on="0"/>
        <pt x="111" y="642" on="0"/>
        <pt x="154" y="680" on="0"/>
        <pt x="218" y="694" on="0"/>
        <pt x="261" y="694" on="1"/>
        <pt x="299" y="694" on="0"/>
        <pt x="376" y="686" on="0"/>
        <pt x="408" y="681" on="1"/>
        <pt x="430" y="697" on="0"/>
        <pt x="490" y="709" on="0"/>
        <pt x="530" y="709" on="1"/>
        <pt x="554" y="709" on="0"/>
        <pt x="605" y="706" on="0"/>
        <pt x="652" y="700" on="0"/>
        <pt x="694" y="694" on="0"/>
        <pt x="710" y="691" on="1"/>
        <pt x="710" y="578" on="1"/>
        <pt x="683" y="583" on="0"/>
        <pt x="601" y="595" on="0"/>
        <pt x="555" y="595" on="1"/>
        <pt x="517" y="595" on="0"/>
        <pt x="492" y="578" on="0"/>
        <pt x="492" y="549" on="1"/>
        <pt x="492" y="500" on="1"/>
        <pt x="748" y="500" on="1"/>
        <pt x="748" y="0" on="1"/>
      </contour>
      <contour>
        <pt x="223" y="500" on="1"/>
        <pt x="359" y="500" on="1"/>
        <pt x="359" y="540" on="1"/>
        <pt x="359" y="550" on="0"/>
        <pt x="359" y="567" on="0"/>
        <pt x="360" y="575" on="1"/>
        <pt x="343" y="577" on="0"/>
        <pt x="306" y="580" on="0"/>
        <pt x="286" y="580" on="1"/>
        <pt x="248" y="580" on="0"/>
        <pt x="223" y="563" on="0"/>
        <pt x="223" y="534" on="1"/>
      </contour>
    </TTGlyph>
    <TTGlyph name="bar" xMin="51" yMin="118" xMax="406" yMax="548">
      <contour>
        <pt x="406" y="333" on="1"/>
        <pt x="51" y="118" on="1"/>
        <pt x="51" y="548" on="1"/>
      </contour>
    </TTGlyph>
    <TTGlyph name="braceleft" xMin="50" yMin="118" xMax="405" yMax="548">
      <contour>
        <pt x="50" y="333" on="1"/>
        <pt x="405" y="548" on="1"/>
        <pt x="405" y="118" on="1"/>
      </contour>
    </TTGlyph>
    <TTGlyph name="braceright" xMin="71" yMin="152" xMax="618" yMax="515">
      <contour>
        <pt x="329" y="515" on="1"/>
        <pt x="329" y="391" on="1"/>
        <pt x="618" y="391" on="1"/>
        <pt x="618" y="276" on="1"/>
        <pt x="329" y="276" on="1"/>
        <pt x="329" y="152" on="1"/>
        <pt x="71" y="333" on="1"/>
      </contour>
    </TTGlyph>
    <TTGlyph name="bracketleft" xMin="25" yMin="0" xMax="620" yMax="709">
      <contour>
        <pt x="492" y="387" on="1"/>
        <pt x="492" y="0" on="1"/>
        <pt x="359" y="0" on="1"/>
        <pt x="359" y="387" on="1"/>
        <pt x="223" y="387" on="1"/>
        <pt x="223" y="0" on="1"/>
        <pt x="90" y="0" on="1"/>
        <pt x="90" y="387" on="1"/>
        <pt x="25" y="387" on="1"/>
        <pt x="25" y="500" on="1"/>
        <pt x="90" y="500" on="1"/>
        <pt x="90" y="525" on="1"/>
        <pt x="90" y="576" on="0"/>
        <pt x="111" y="642" on="0"/>
        <pt x="154" y="680" on="0"/>
        <pt x="218" y="694" on="0"/>
        <pt x="261" y="694" on="1"/>
        <pt x="298" y="694" on="0"/>
        <pt x="372" y="687" on="0"/>
        <pt x="404" y="682" on="1"/>
        <pt x="423" y="697" on="0"/>
        <pt x="475" y="709" on="0"/>
        <pt x="510" y="709" on="1"/>
        <pt x="542" y="709" on="0"/>
        <pt x="605" y="700" on="0"/>
        <pt x="620" y="697" on="1"/>
        <pt x="620" y="584" on="1"/>
        <pt x="604" y="588" on="0"/>
        <pt x="562" y="595" on="0"/>
        <pt x="535" y="595" on="1"/>
        <pt x="510" y="595" on="0"/>
        <pt x="492" y="570" on="0"/>
        <pt x="492" y="549" on="1"/>
        <pt x="492" y="500" on="1"/>
        <pt x="601" y="500" on="1"/>
        <pt x="601" y="387" on="1"/>
      </contour>
      <contour>
        <pt x="359" y="540" on="1"/>
        <pt x="359" y="550" on="0"/>
        <pt x="359" y="567" on="0"/>
        <pt x="360" y="575" on="1"/>
        <pt x="343" y="577" on="0"/>
        <pt x="306" y="580" on="0"/>
        <pt x="286" y="580" on="1"/>
        <pt x="248" y="580" on="0"/>
        <pt x="223" y="563" on="0"/>
        <pt x="223" y="534" on="1"/>
        <pt x="223" y="500" on="1"/>
        <pt x="359" y="500" on="1"/>
        <pt x="359" y="540" on="1"/>
      </contour>
    </TTGlyph>
    <TTGlyph name="bracketright" xMin="25" yMin="-177" xMax="748" yMax="709">
      <contour>
        <pt x="748" y="-13" on="1"/>
        <pt x="748" y="-61" on="0"/>
        <pt x="730" y="-124" on="0"/>
        <pt x="692" y="-161" on="0"/>
        <pt x="632" y="-177" on="0"/>
        <pt x="590" y="-177" on="1"/>
        <pt x="566" y="-177" on="0"/>
        <pt x="525" y="-174" on="0"/>
        <pt x="505" y="-172" on="1"/>
        <pt x="505" y="-60" on="1"/>
        <pt x="518" y="-62" on="0"/>
        <pt x="556" y="-63" on="0"/>
        <pt x="568" y="-63" on="1"/>
        <pt x="595" y="-63" on="0"/>
        <pt x="615" y="-44" on="0"/>
        <pt x="615" y="-18" on="1"/>
        <pt x="615" y="387" on="1"/>
        <pt x="492" y="387" on="1"/>
        <pt x="492" y="0" on="1"/>
        <pt x="359" y="0" on="1"/>
        <pt x="359" y="387" on="1"/>
        <pt x="223" y="387" on="1"/>
        <pt x="223" y="0" on="1"/>
        <pt x="90" y="0" on="1"/>
        <pt x="90" y="387" on="1"/>
        <pt x="25" y="387" on="1"/>
        <pt x="25" y="500" on="1"/>
        <pt x="90" y="500" on="1"/>
        <pt x="90" y="525" on="1"/>
        <pt x="90" y="576" on="0"/>
        <pt x="111" y="642" on="0"/>
        <pt x="154" y="680" on="0"/>
        <pt x="218" y="694" on="0"/>
        <pt x="261" y="694" on="1"/>
        <pt x="299" y="694" on="0"/>
        <pt x="376" y="686" on="0"/>
        <pt x="408" y="681" on="1"/>
        <pt x="430" y="697" on="0"/>
        <pt x="490" y="709" on="0"/>
        <pt x="530" y="709" on="1"/>
        <pt x="554" y="709" on="0"/>
        <pt x="605" y="706" on="0"/>
        <pt x="652" y="700" on="0"/>
        <pt x="694" y="694" on="0"/>
        <pt x="710" y="691" on="1"/>
        <pt x="710" y="578" on="1"/>
        <pt x="683" y="583" on="0"/>
        <pt x="601" y="595" on="0"/>
        <pt x="555" y="595" on="1"/>
        <pt x="517" y="595" on="0"/>
        <pt x="492" y="578" on="0"/>
        <pt x="492" y="549" on="1"/>
        <pt x="492" y="500" on="1"/>
        <pt x="748" y="500" on="1"/>
      </contour>
      <contour>
        <pt x="223" y="500" on="1"/>
        <pt x="359" y="500" on="1"/>
        <pt x="359" y="540" on="1"/>
        <pt x="359" y="550" on="0"/>
        <pt x="359" y="567" on="0"/>
        <pt x="360" y="575" on="1"/>
        <pt x="343" y="577" on="0"/>
        <pt x="306" y="580" on="0"/>
        <pt x="286" y="580" on="1"/>
        <pt x="248" y="580" on="0"/>
        <pt x="223" y="563" on="0"/>
        <pt x="223" y="534" on="1"/>
      </contour>
    </TTGlyph>
    <TTGlyph name="breve" xMin="50" yMin="244" xMax="200" yMax="374">
      <contour>
        <pt x="50" y="244" on="1"/>
        <pt x="50" y="374" on="1"/>
        <pt x="200" y="374" on="1"/>
        <pt x="200" y="244" on="1"/>
      </contour>
    </TTGlyph>
    <TTGlyph name="brokenbar" xMin="50" yMin="244" xMax="200" yMax="374">
      <contour>
        <pt x="50" y="244" on="1"/>
        <pt x="50" y="374" on="1"/>
        <pt x="200" y="374" on="1"/>
        <pt x="200" y="244" on="1"/>
      </contour>
    </TTGlyph>
    <TTGlyph name="bullet" xMin="50" yMin="244" xMax="200" yMax="374">
      <contour>
        <pt x="50" y="244" on="1"/>
        <pt x="50" y="374" on="1"/>
        <pt x="200" y="374" on="1"/>
        <pt x="200" y="244" on="1"/>
      </contour>
    </TTGlyph>
    <TTGlyph name="c" xMin="57" yMin="0" xMax="333" yMax="502">
      <contour>
        <pt x="57" y="0" on="1"/>
        <pt x="57" y="104" on="1"/>
        <pt x="159" y="228" on="1"/>
        <pt x="176" y="247" on="0"/>
        <pt x="197" y="276" on="0"/>
        <pt x="208" y="304" on="0"/>
        <pt x="212" y="334" on="0"/>
        <pt x="212" y="352" on="1"/>
        <pt x="212" y="372" on="0"/>
        <pt x="187" y="405" on="0"/>
        <pt x="152" y="405" on="1"/>
        <pt x="128" y="405" on="0"/>
        <pt x="88" y="398" on="0"/>
        <pt x="70" y="394" on="1"/>
        <pt x="70" y="491" on="1"/>
        <pt x="73" y="491" on="0"/>
        <pt x="95" y="495" on="0"/>
        <pt x="124" y="499" on="0"/>
        <pt x="157" y="502" on="0"/>
        <pt x="172" y="502" on="1"/>
        <pt x="247" y="502" on="0"/>
        <pt x="327" y="418" on="0"/>
        <pt x="327" y="345" on="1"/>
        <pt x="327" y="262" on="0"/>
        <pt x="279" y="205" on="1"/>
        <pt x="189" y="98" on="1"/>
        <pt x="333" y="98" on="1"/>
        <pt x="333" y="0" on="1"/>
      </contour>
    </TTGlyph>
    <TTGlyph name="caron" xMin="50" yMin="244" xMax="200" yMax="374">
      <contour>
        <pt x="50" y="244" on="1"/>
        <pt x="50" y="374" on="1"/>
        <pt x="200" y="374" on="1"/>
        <pt x="200" y="244" on="1"/>
      </contour>
    </TTGlyph>
    <TTGlyph name="ccedilla" xMin="50" yMin="244" xMax="200" yMax="374">
      <contour>
        <pt x="50" y="244" on="1"/>
        <pt x="50" y="374" on="1"/>
        <pt x="200" y="374" on="1"/>
        <pt x="200" y="244" on="1"/>
      </contour>
    </TTGlyph>
    <TTGlyph name="cedilla" xMin="50" yMin="244" xMax="200" yMax="374">
      <contour>
        <pt x="50" y="244" on="1"/>
        <pt x="50" y="374" on="1"/>
        <pt x="200" y="374" on="1"/>
        <pt x="200" y="244" on="1"/>
      </contour>
    </TTGlyph>
    <TTGlyph name="cent" xMin="50" yMin="244" xMax="200" yMax="374">
      <contour>
        <pt x="50" y="244" on="1"/>
        <pt x="50" y="374" on="1"/>
        <pt x="200" y="374" on="1"/>
        <pt x="200" y="244" on="1"/>
      </contour>
    </TTGlyph>
    <TTGlyph name="circumflex" xMin="50" yMin="244" xMax="200" yMax="374">
      <contour>
        <pt x="50" y="244" on="1"/>
        <pt x="50" y="374" on="1"/>
        <pt x="200" y="374" on="1"/>
        <pt x="200" y="244" on="1"/>
      </contour>
    </TTGlyph>
    <TTGlyph name="colon" xMin="50" yMin="244" xMax="200" yMax="374">
      <contour>
        <pt x="50" y="244" on="1"/>
        <pt x="50" y="374" on="1"/>
        <pt x="200" y="374" on="1"/>
        <pt x="200" y="244" on="1"/>
      </contour>
    </TTGlyph>
    <TTGlyph name="comma" xMin="20" yMin="581" xMax="413" yMax="716">
      <contour>
        <pt x="167" y="716" on="1"/>
        <pt x="217" y="642" on="1"/>
        <pt x="267" y="716" on="1"/>
        <pt x="413" y="716" on="1"/>
        <pt x="291" y="581" on="1"/>
        <pt x="143" y="581" on="1"/>
        <pt x="20" y="716" on="1"/>
      </contour>
    </TTGlyph>
    <TTGlyph name="copyright" xMin="50" yMin="244" xMax="200" yMax="374">
      <contour>
        <pt x="50" y="244" on="1"/>
        <pt x="50" y="374" on="1"/>
        <pt x="200" y="374" on="1"/>
        <pt x="200" y="244" on="1"/>
      </contour>
    </TTGlyph>
    <TTGlyph name="currency" xMin="13" yMin="28" xMax="557" yMax="572">
      <contour>
        <pt x="85" y="185" on="1"/>
        <pt x="74" y="210" on="0"/>
        <pt x="65" y="268" on="0"/>
        <pt x="65" y="300" on="1"/>
        <pt x="65" y="365" on="0"/>
        <pt x="86" y="414" on="1"/>
        <pt x="13" y="487" on="1"/>
        <pt x="98" y="572" on="1"/>
        <pt x="164" y="506" on="1"/>
        <pt x="215" y="537" on="0"/>
        <pt x="285" y="537" on="1"/>
        <pt x="353" y="537" on="0"/>
        <pt x="406" y="506" on="1"/>
        <pt x="472" y="572" on="1"/>
        <pt x="557" y="487" on="1"/>
        <pt x="489" y="419" on="1"/>
        <pt x="515" y="367" on="0"/>
        <pt x="515" y="300" on="1"/>
        <pt x="515" y="234" on="0"/>
        <pt x="489" y="180" on="1"/>
        <pt x="557" y="113" on="1"/>
        <pt x="472" y="28" on="1"/>
        <pt x="407" y="92" on="1"/>
        <pt x="357" y="63" on="0"/>
        <pt x="285" y="63" on="1"/>
        <pt x="212" y="63" on="0"/>
        <pt x="162" y="92" on="1"/>
        <pt x="98" y="28" on="1"/>
        <pt x="13" y="113" on="1"/>
      </contour>
      <contour>
        <pt x="383" y="300" on="1"/>
        <pt x="383" y="356" on="0"/>
        <pt x="335" y="430" on="0"/>
        <pt x="285" y="430" on="1"/>
        <pt x="235" y="430" on="0"/>
        <pt x="187" y="356" on="0"/>
        <pt x="187" y="300" on="1"/>
        <pt x="187" y="244" on="0"/>
        <pt x="235" y="170" on="0"/>
        <pt x="285" y="170" on="1"/>
        <pt x="310" y="170" on="0"/>
        <pt x="347" y="190" on="0"/>
        <pt x="371" y="225" on="0"/>
        <pt x="383" y="272" on="0"/>
      </contour>
    </TTGlyph>
    <TTGlyph name="d" xMin="69" yMin="-7" xMax="331" yMax="502">
      <contour>
        <pt x="331" y="156" on="1"/>
        <pt x="331" y="108" on="0"/>
        <pt x="308" y="45" on="0"/>
        <pt x="268" y="8" on="0"/>
        <pt x="211" y="-7" on="0"/>
        <pt x="178" y="-7" on="1"/>
        <pt x="164" y="-7" on="0"/>
        <pt x="131" y="-4" on="0"/>
        <pt x="99" y="-1" on="0"/>
        <pt x="74" y="3" on="0"/>
        <pt x="69" y="4" on="1"/>
        <pt x="69" y="98" on="1"/>
        <pt x="83" y="95" on="0"/>
        <pt x="128" y="86" on="0"/>
        <pt x="153" y="86" on="1"/>
        <pt x="182" y="86" on="0"/>
        <pt x="216" y="116" on="0"/>
        <pt x="216" y="148" on="1"/>
        <pt x="216" y="219" on="0"/>
        <pt x="151" y="219" on="1"/>
        <pt x="108" y="219" on="1"/>
        <pt x="108" y="310" on="1"/>
        <pt x="144" y="310" on="1"/>
        <pt x="165" y="310" on="0"/>
        <pt x="190" y="319" on="0"/>
        <pt x="204" y="334" on="0"/>
        <pt x="208" y="354" on="0"/>
        <pt x="208" y="366" on="1"/>
        <pt x="208" y="409" on="0"/>
        <pt x="154" y="409" on="1"/>
        <pt x="133" y="409" on="0"/>
        <pt x="90" y="401" on="0"/>
        <pt x="73" y="397" on="1"/>
        <pt x="73" y="491" on="1"/>
        <pt x="76" y="492" on="0"/>
        <pt x="97" y="495" on="0"/>
        <pt x="126" y="499" on="0"/>
        <pt x="159" y="502" on="0"/>
        <pt x="174" y="502" on="1"/>
        <pt x="216" y="502" on="0"/>
        <pt x="273" y="485" on="0"/>
        <pt x="308" y="451" on="0"/>
        <pt x="322" y="397" on="0"/>
        <pt x="322" y="361" on="1"/>
        <pt x="322" y="332" on="0"/>
        <pt x="289" y="277" on="0"/>
        <pt x="259" y="267" on="1"/>
        <pt x="290" y="259" on="0"/>
        <pt x="331" y="196" on="0"/>
      </contour>
    </TTGlyph>
    <TTGlyph name="dagger" xMin="50" yMin="244" xMax="200" yMax="374">
      <contour>
        <pt x="50" y="244" on="1"/>
        <pt x="50" y="374" on="1"/>
        <pt x="200" y="374" on="1"/>
        <pt x="200" y="244" on="1"/>
      </contour>
    </TTGlyph>
    <TTGlyph name="daggerdbl" xMin="50" yMin="244" xMax="200" yMax="374">
      <contour>
        <pt x="50" y="244" on="1"/>
        <pt x="50" y="374" on="1"/>
        <pt x="200" y="374" on="1"/>
        <pt x="200" y="244" on="1"/>
      </contour>
    </TTGlyph>
    <TTGlyph name="degree" xMin="50" yMin="244" xMax="200" yMax="374">
      <contour>
        <pt x="50" y="244" on="1"/>
        <pt x="50" y="374" on="1"/>
        <pt x="200" y="374" on="1"/>
        <pt x="200" y="244" on="1"/>
      </contour>
    </TTGlyph>
    <TTGlyph name="dieresis" xMin="50" yMin="244" xMax="200" yMax="374">
      <contour>
        <pt x="50" y="244" on="1"/>
        <pt x="50" y="374" on="1"/>
        <pt x="200" y="374" on="1"/>
        <pt x="200" y="244" on="1"/>
      </contour>
    </TTGlyph>
    <TTGlyph name="divide" xMin="50" yMin="244" xMax="200" yMax="374">
      <contour>
        <pt x="50" y="244" on="1"/>
        <pt x="50" y="374" on="1"/>
        <pt x="200" y="374" on="1"/>
        <pt x="200" y="244" on="1"/>
      </contour>
    </TTGlyph>
    <TTGlyph name="dollar" xMin="90" yMin="-110" xMax="220" yMax="810">
      <contour>
        <pt x="90" y="-110" on="1"/>
        <pt x="90" y="250" on="1"/>
        <pt x="220" y="250" on="1"/>
        <pt x="220" y="-110" on="1"/>
      </contour>
      <contour>
        <pt x="90" y="450" on="1"/>
        <pt x="90" y="810" on="1"/>
        <pt x="220" y="810" on="1"/>
        <pt x="220" y="450" on="1"/>
      </contour>
    </TTGlyph>
    <TTGlyph name="dotaccent" xMin="50" yMin="244" xMax="200" yMax="374">
      <contour>
        <pt x="50" y="244" on="1"/>
        <pt x="50" y="374" on="1"/>
        <pt x="200" y="374" on="1"/>
        <pt x="200" y="244" on="1"/>
      </contour>
    </TTGlyph>
    <TTGlyph name="dotlessi" xMin="50" yMin="244" xMax="200" yMax="374">
      <contour>
        <pt x="50" y="244" on="1"/>
        <pt x="50" y="374" on="1"/>
        <pt x="200" y="374" on="1"/>
        <pt x="200" y="244" on="1"/>
      </contour>
    </TTGlyph>
    <TTGlyph name="dotmath" xMin="50" yMin="244" xMax="200" yMax="374">
      <contour>
        <pt x="50" y="244" on="1"/>
        <pt x="50" y="374" on="1"/>
        <pt x="200" y="374" on="1"/>
        <pt x="200" y="244" on="1"/>
      </contour>
    </TTGlyph>
    <TTGlyph name="e" xMin="56" yMin="0" xMax="359" yMax="495">
      <contour>
        <pt x="314" y="117" on="1"/>
        <pt x="314" y="0" on="1"/>
        <pt x="200" y="0" on="1"/>
        <pt x="200" y="117" on="1"/>
        <pt x="56" y="117" on="1"/>
        <pt x="56" y="221" on="1"/>
        <pt x="127" y="495" on="1"/>
        <pt x="236" y="495" on="1"/>
        <pt x="164" y="211" on="1"/>
        <pt x="202" y="211" on="1"/>
        <pt x="213" y="324" on="1"/>
        <pt x="314" y="324" on="1"/>
        <pt x="314" y="211" on="1"/>
        <pt x="359" y="211" on="1"/>
        <pt x="359" y="117" on="1"/>
      </contour>
    </TTGlyph>
    <TTGlyph name="eacute" xMin="50" yMin="244" xMax="200" yMax="374">
      <contour>
        <pt x="50" y="244" on="1"/>
        <pt x="50" y="374" on="1"/>
        <pt x="200" y="374" on="1"/>
        <pt x="200" y="244" on="1"/>
      </contour>
    </TTGlyph>
    <TTGlyph name="ecircumflex" xMin="50" yMin="244" xMax="200" yMax="374">
      <contour>
        <pt x="50" y="244" on="1"/>
        <pt x="50" y="374" on="1"/>
        <pt x="200" y="374" on="1"/>
        <pt x="200" y="244" on="1"/>
      </contour>
    </TTGlyph>
    <TTGlyph name="edieresis" xMin="50" yMin="244" xMax="200" yMax="374">
      <contour>
        <pt x="50" y="244" on="1"/>
        <pt x="50" y="374" on="1"/>
        <pt x="200" y="374" on="1"/>
        <pt x="200" y="244" on="1"/>
      </contour>
    </TTGlyph>
    <TTGlyph name="egrave" xMin="50" yMin="244" xMax="200" yMax="374">
      <contour>
        <pt x="50" y="244" on="1"/>
        <pt x="50" y="374" on="1"/>
        <pt x="200" y="374" on="1"/>
        <pt x="200" y="244" on="1"/>
      </contour>
    </TTGlyph>
    <TTGlyph name="eight" xMin="50" yMin="244" xMax="200" yMax="374">
      <contour>
        <pt x="50" y="244" on="1"/>
        <pt x="50" y="374" on="1"/>
        <pt x="200" y="374" on="1"/>
        <pt x="200" y="244" on="1"/>
      </contour>
    </TTGlyph>
    <TTGlyph name="ellipsis" xMin="50" yMin="244" xMax="200" yMax="374">
      <contour>
        <pt x="50" y="244" on="1"/>
        <pt x="50" y="374" on="1"/>
        <pt x="200" y="374" on="1"/>
        <pt x="200" y="244" on="1"/>
      </contour>
    </TTGlyph>
    <TTGlyph name="emdash" xMin="50" yMin="244" xMax="200" yMax="374">
      <contour>
        <pt x="50" y="244" on="1"/>
        <pt x="50" y="374" on="1"/>
        <pt x="200" y="374" on="1"/>
        <pt x="200" y="244" on="1"/>
      </contour>
    </TTGlyph>
    <TTGlyph name="endash" xMin="50" yMin="244" xMax="200" yMax="374">
      <contour>
        <pt x="50" y="244" on="1"/>
        <pt x="50" y="374" on="1"/>
        <pt x="200" y="374" on="1"/>
        <pt x="200" y="244" on="1"/>
      </contour>
    </TTGlyph>
    <TTGlyph name="equal" xMin="75" yMin="50" xMax="475" yMax="555">
      <contour>
        <pt x="251" y="145" on="1"/>
        <pt x="200" y="50" on="1"/>
        <pt x="75" y="50" on="1"/>
        <pt x="126" y="145" on="1"/>
        <pt x="75" y="145" on="1"/>
        <pt x="75" y="260" on="1"/>
        <pt x="189" y="260" on="1"/>
        <pt x="235" y="345" on="1"/>
        <pt x="75" y="345" on="1"/>
        <pt x="75" y="460" on="1"/>
        <pt x="298" y="460" on="1"/>
        <pt x="350" y="555" on="1"/>
        <pt x="475" y="555" on="1"/>
        <pt x="423" y="460" on="1"/>
        <pt x="475" y="460" on="1"/>
        <pt x="475" y="345" on="1"/>
        <pt x="360" y="345" on="1"/>
        <pt x="314" y="260" on="1"/>
        <pt x="475" y="260" on="1"/>
        <pt x="475" y="145" on="1"/>
      </contour>
    </TTGlyph>
    <TTGlyph name="eth" xMin="50" yMin="244" xMax="200" yMax="374">
      <contour>
        <pt x="50" y="244" on="1"/>
        <pt x="50" y="374" on="1"/>
        <pt x="200" y="374" on="1"/>
        <pt x="200" y="244" on="1"/>
      </contour>
    </TTGlyph>
    <TTGlyph name="exclam" xMin="75" yMin="135" xMax="475" yMax="645">
      <contour>
        <pt x="75" y="135" on="1"/>
        <pt x="75" y="250" on="1"/>
        <pt x="475" y="250" on="1"/>
        <pt x="475" y="135" on="1"/>
      </contour>
      <contour>
        <pt x="75" y="335" on="1"/>
        <pt x="75" y="450" on="1"/>
        <pt x="475" y="450" on="1"/>
        <pt x="475" y="335" on="1"/>
      </contour>
      <contour>
        <pt x="75" y="610" on="1"/>
        <pt x="110" y="631" on="0"/>
        <pt x="177" y="645" on="0"/>
        <pt x="199" y="645" on="1"/>
        <pt x="219" y="645" on="0"/>
        <pt x="260" y="633" on="0"/>
        <pt x="301" y="618" on="0"/>
        <pt x="341" y="606" on="0"/>
        <pt x="360" y="606" on="1"/>
        <pt x="373" y="606" on="0"/>
        <pt x="404" y="611" on="0"/>
        <pt x="436" y="620" on="0"/>
        <pt x="465" y="633" on="0"/>
        <pt x="475" y="640" on="1"/>
        <pt x="475" y="522" on="1"/>
        <pt x="464" y="515" on="0"/>
        <pt x="433" y="502" on="0"/>
        <pt x="399" y="492" on="0"/>
        <pt x="365" y="487" on="0"/>
        <pt x="351" y="487" on="1"/>
        <pt x="330" y="487" on="0"/>
        <pt x="291" y="500" on="0"/>
        <pt x="252" y="515" on="0"/>
        <pt x="213" y="528" on="0"/>
        <pt x="192" y="528" on="1"/>
        <pt x="179" y="528" on="0"/>
        <pt x="147" y="522" on="0"/>
        <pt x="115" y="512" on="0"/>
        <pt x="86" y="499" on="0"/>
        <pt x="75" y="492" on="1"/>
      </contour>
    </TTGlyph>
    <TTGlyph name="exclamdown" xMin="50" yMin="244" xMax="200" yMax="374">
      <contour>
        <pt x="50" y="244" on="1"/>
        <pt x="50" y="374" on="1"/>
        <pt x="200" y="374" on="1"/>
        <pt x="200" y="244" on="1"/>
      </contour>
    </TTGlyph>
    <TTGlyph name="f" xMin="76" yMin="-7" xMax="333" yMax="495">
      <contour>
        <pt x="193" y="398" on="1"/>
        <pt x="193" y="316" on="1"/>
        <pt x="202" y="316" on="1"/>
        <pt x="246" y="316" on="0"/>
        <pt x="297" y="295" on="0"/>
        <pt x="325" y="254" on="0"/>
        <pt x="333" y="197" on="0"/>
        <pt x="333" y="161" on="1"/>
        <pt x="333" y="111" on="0"/>
        <pt x="311" y="46" on="0"/>
        <pt x="273" y="8" on="0"/>
        <pt x="221" y="-7" on="0"/>
        <pt x="190" y="-7" on="1"/>
        <pt x="175" y="-7" on="0"/>
        <pt x="142" y="-5" on="0"/>
        <pt x="111" y="-1" on="0"/>
        <pt x="84" y="3" on="0"/>
        <pt x="76" y="4" on="1"/>
        <pt x="76" y="101" on="1"/>
        <pt x="86" y="99" on="0"/>
        <pt x="138" y="90" on="0"/>
        <pt x="170" y="90" on="1"/>
        <pt x="195" y="90" on="0"/>
        <pt x="219" y="127" on="0"/>
        <pt x="219" y="153" on="1"/>
        <pt x="219" y="172" on="0"/>
        <pt x="216" y="199" on="0"/>
        <pt x="204" y="215" on="0"/>
        <pt x="182" y="223" on="0"/>
        <pt x="163" y="223" on="1"/>
        <pt x="83" y="223" on="1"/>
        <pt x="83" y="495" on="1"/>
        <pt x="312" y="495" on="1"/>
        <pt x="312" y="398" on="1"/>
      </contour>
    </TTGlyph>
    <TTGlyph name="fi" xMin="50" yMin="244" xMax="200" yMax="374">
      <contour>
        <pt x="50" y="244" on="1"/>
        <pt x="50" y="374" on="1"/>
        <pt x="200" y="374" on="1"/>
        <pt x="200" y="244" on="1"/>
      </contour>
    </TTGlyph>
    <TTGlyph name="five" xMin="50" yMin="244" xMax="200" yMax="374">
      <contour>
        <pt x="50" y="244" on="1"/>
        <pt x="50" y="374" on="1"/>
        <pt x="200" y="374" on="1"/>
        <pt x="200" y="244" on="1"/>
      </contour>
    </TTGlyph>
    <TTGlyph name="fl" xMin="50" yMin="244" xMax="200" yMax="374">
      <contour>
        <pt x="50" y="244" on="1"/>
        <pt x="50" y="374" on="1"/>
        <pt x="200" y="374" on="1"/>
        <pt x="200" y="244" on="1"/>
      </contour>
    </TTGlyph>
    <TTGlyph name="florin" xMin="50" yMin="244" xMax="200" yMax="374">
      <contour>
        <pt x="50" y="244" on="1"/>
        <pt x="50" y="374" on="1"/>
        <pt x="200" y="374" on="1"/>
        <pt x="200" y="244" on="1"/>
      </contour>
    </TTGlyph>
    <TTGlyph name="four" xMin="50" yMin="244" xMax="200" yMax="374">
      <contour>
        <pt x="50" y="244" on="1"/>
        <pt x="50" y="374" on="1"/>
        <pt x="200" y="374" on="1"/>
        <pt x="200" y="244" on="1"/>
      </contour>
    </TTGlyph>
    <TTGlyph name="fraction" xMin="50" yMin="244" xMax="200" yMax="374">
      <contour>
        <pt x="50" y="244" on="1"/>
        <pt x="50" y="374" on="1"/>
        <pt x="200" y="374" on="1"/>
        <pt x="200" y="244" on="1"/>
      </contour>
    </TTGlyph>
    <TTGlyph name="g" xMin="50" yMin="-7" xMax="358" yMax="502">
      <contour>
        <pt x="358" y="158" on="1"/>
        <pt x="358" y="114" on="0"/>
        <pt x="335" y="52" on="0"/>
        <pt x="294" y="12" on="0"/>
        <pt x="237" y="-7" on="0"/>
        <pt x="203" y="-7" on="1"/>
        <pt x="164" y="-7" on="0"/>
        <pt x="106" y="13" on="0"/>
        <pt x="68" y="72" on="0"/>
        <pt x="50" y="182" on="0"/>
        <pt x="50" y="272" on="1"/>
        <pt x="50" y="345" on="0"/>
        <pt x="77" y="435" on="0"/>
        <pt x="124" y="485" on="0"/>
        <pt x="189" y="502" on="0"/>
        <pt x="226" y="502" on="1"/>
        <pt x="259" y="502" on="0"/>
        <pt x="308" y="495" on="0"/>
        <pt x="318" y="493" on="1"/>
        <pt x="318" y="399" on="1"/>
        <pt x="303" y="403" on="0"/>
        <pt x="265" y="410" on="0"/>
        <pt x="241" y="410" on="1"/>
        <pt x="222" y="410" on="0"/>
        <pt x="196" y="404" on="0"/>
        <pt x="178" y="385" on="0"/>
        <pt x="168" y="350" on="0"/>
        <pt x="166" y="322" on="1"/>
        <pt x="178" y="327" on="0"/>
        <pt x="205" y="334" on="0"/>
        <pt x="221" y="334" on="1"/>
        <pt x="297" y="334" on="0"/>
        <pt x="358" y="245" on="0"/>
      </contour>
      <contour>
        <pt x="192" y="242" on="1"/>
        <pt x="176" y="242" on="0"/>
        <pt x="164" y="236" on="1"/>
        <pt x="164" y="185" on="0"/>
        <pt x="167" y="126" on="0"/>
        <pt x="176" y="96" on="0"/>
        <pt x="193" y="87" on="0"/>
        <pt x="206" y="87" on="1"/>
        <pt x="231" y="87" on="0"/>
        <pt x="244" y="124" on="0"/>
        <pt x="244" y="152" on="1"/>
        <pt x="244" y="180" on="0"/>
        <pt x="239" y="215" on="0"/>
        <pt x="227" y="235" on="0"/>
        <pt x="207" y="242" on="0"/>
      </contour>
    </TTGlyph>
    <TTGlyph name="germandbls" xMin="50" yMin="244" xMax="200" yMax="374">
      <contour>
        <pt x="50" y="244" on="1"/>
        <pt x="50" y="374" on="1"/>
        <pt x="200" y="374" on="1"/>
        <pt x="200" y="244" on="1"/>
      </contour>
    </TTGlyph>
    <TTGlyph name="grave" xMin="50" yMin="215" xMax="255" yMax="410">
      <contour>
        <pt x="50" y="215" on="1"/>
        <pt x="50" y="410" on="1"/>
        <pt x="255" y="410" on="1"/>
        <pt x="255" y="215" on="1"/>
      </contour>
    </TTGlyph>
    <TTGlyph name="greater" xMin="75" yMin="0" xMax="475" yMax="583">
      <contour>
        <pt x="75" y="0" on="1"/>
        <pt x="75" y="115" on="1"/>
        <pt x="475" y="115" on="1"/>
        <pt x="475" y="0" on="1"/>
      </contour>
      <contour>
        <pt x="75" y="136" on="1"/>
        <pt x="75" y="269" on="1"/>
        <pt x="364" y="349" on="1"/>
        <pt x="75" y="452" on="1"/>
        <pt x="75" y="583" on="1"/>
        <pt x="475" y="427" on="1"/>
        <pt x="475" y="264" on="1"/>
      </contour>
    </TTGlyph>
    <TTGlyph name="greaterequal" xMin="50" yMin="244" xMax="200" yMax="374">
      <contour>
        <pt x="50" y="244" on="1"/>
        <pt x="50" y="374" on="1"/>
        <pt x="200" y="374" on="1"/>
        <pt x="200" y="244" on="1"/>
      </contour>
    </TTGlyph>
    <TTGlyph name="guillemotleft" xMin="50" yMin="244" xMax="200" yMax="374">
      <contour>
        <pt x="50" y="244" on="1"/>
        <pt x="50" y="374" on="1"/>
        <pt x="200" y="374" on="1"/>
        <pt x="200" y="244" on="1"/>
      </contour>
    </TTGlyph>
    <TTGlyph name="guillemotright" xMin="50" yMin="244" xMax="200" yMax="374">
      <contour>
        <pt x="50" y="244" on="1"/>
        <pt x="50" y="374" on="1"/>
        <pt x="200" y="374" on="1"/>
        <pt x="200" y="244" on="1"/>
      </contour>
    </TTGlyph>
    <TTGlyph name="guilsinglleft" xMin="50" yMin="244" xMax="200" yMax="374">
      <contour>
        <pt x="50" y="244" on="1"/>
        <pt x="50" y="374" on="1"/>
        <pt x="200" y="374" on="1"/>
        <pt x="200" y="244" on="1"/>
      </contour>
    </TTGlyph>
    <TTGlyph name="guilsinglright" xMin="50" yMin="244" xMax="200" yMax="374">
      <contour>
        <pt x="50" y="244" on="1"/>
        <pt x="50" y="374" on="1"/>
        <pt x="200" y="374" on="1"/>
        <pt x="200" y="244" on="1"/>
      </contour>
    </TTGlyph>
    <TTGlyph name="h" xMin="75" yMin="0" xMax="336" yMax="495">
      <contour>
        <pt x="215" y="0" on="1"/>
        <pt x="101" y="0" on="1"/>
        <pt x="226" y="400" on="1"/>
        <pt x="75" y="400" on="1"/>
        <pt x="75" y="495" on="1"/>
        <pt x="336" y="495" on="1"/>
        <pt x="336" y="384" on="1"/>
      </contour>
    </TTGlyph>
    <TTGlyph name="hungarumlaut" xMin="50" yMin="244" xMax="200" yMax="374">
      <contour>
        <pt x="50" y="244" on="1"/>
        <pt x="50" y="374" on="1"/>
        <pt x="200" y="374" on="1"/>
        <pt x="200" y="244" on="1"/>
      </contour>
    </TTGlyph>
    <TTGlyph name="hyphen" xMin="75" yMin="245" xMax="420" yMax="360">
      <contour>
        <pt x="75" y="245" on="1"/>
        <pt x="75" y="360" on="1"/>
        <pt x="420" y="360" on="1"/>
        <pt x="420" y="245" on="1"/>
      </contour>
    </TTGlyph>
    <TTGlyph name="i" xMin="38" yMin="-7" xMax="372" yMax="502">
      <contour>
        <pt x="258" y="140" on="1"/>
        <pt x="258" y="157" on="0"/>
        <pt x="254" y="184" on="0"/>
        <pt x="239" y="204" on="0"/>
        <pt x="209" y="215" on="0"/>
        <pt x="183" y="215" on="1"/>
        <pt x="163" y="199" on="0"/>
        <pt x="153" y="168" on="0"/>
        <pt x="153" y="139" on="1"/>
        <pt x="153" y="117" on="0"/>
        <pt x="174" y="85" on="0"/>
        <pt x="205" y="85" on="1"/>
        <pt x="236" y="85" on="0"/>
        <pt x="258" y="117" on="0"/>
      </contour>
      <contour>
        <pt x="249" y="364" on="1"/>
        <pt x="247" y="390" on="0"/>
        <pt x="226" y="410" on="0"/>
        <pt x="205" y="410" on="1"/>
        <pt x="184" y="410" on="0"/>
        <pt x="161" y="390" on="0"/>
        <pt x="161" y="364" on="1"/>
        <pt x="161" y="337" on="0"/>
        <pt x="180" y="301" on="0"/>
        <pt x="217" y="301" on="1"/>
        <pt x="231" y="308" on="0"/>
        <pt x="250" y="332" on="0"/>
        <pt x="250" y="355" on="1"/>
        <pt x="250" y="357" on="0"/>
        <pt x="249" y="362" on="0"/>
      </contour>
      <contour>
        <pt x="372" y="148" on="1"/>
        <pt x="372" y="113" on="0"/>
        <pt x="355" y="56" on="0"/>
        <pt x="316" y="15" on="0"/>
        <pt x="252" y="-7" on="0"/>
        <pt x="205" y="-7" on="1"/>
        <pt x="158" y="-7" on="0"/>
        <pt x="94" y="15" on="0"/>
        <pt x="55" y="56" on="0"/>
        <pt x="38" y="113" on="0"/>
        <pt x="38" y="148" on="1"/>
        <pt x="38" y="185" on="0"/>
        <pt x="72" y="237" on="0"/>
        <pt x="103" y="251" on="1"/>
        <pt x="48" y="279" on="0"/>
        <pt x="48" y="357" on="1"/>
        <pt x="48" y="426" on="0"/>
        <pt x="119" y="502" on="0"/>
        <pt x="205" y="502" on="1"/>
        <pt x="291" y="502" on="0"/>
        <pt x="362" y="428" on="0"/>
        <pt x="362" y="357" on="1"/>
        <pt x="362" y="345" on="0"/>
        <pt x="356" y="319" on="0"/>
        <pt x="342" y="293" on="0"/>
        <pt x="319" y="272" on="0"/>
        <pt x="303" y="266" on="1"/>
        <pt x="336" y="258" on="0"/>
        <pt x="372" y="194" on="0"/>
      </contour>
    </TTGlyph>
    <TTGlyph name="iacute" xMin="50" yMin="244" xMax="200" yMax="374">
      <contour>
        <pt x="50" y="244" on="1"/>
        <pt x="50" y="374" on="1"/>
        <pt x="200" y="374" on="1"/>
        <pt x="200" y="244" on="1"/>
      </contour>
    </TTGlyph>
    <TTGlyph name="icircumflex" xMin="50" yMin="244" xMax="200" yMax="374">
      <contour>
        <pt x="50" y="244" on="1"/>
        <pt x="50" y="374" on="1"/>
        <pt x="200" y="374" on="1"/>
        <pt x="200" y="244" on="1"/>
      </contour>
    </TTGlyph>
    <TTGlyph name="idieresis" xMin="50" yMin="244" xMax="200" yMax="374">
      <contour>
        <pt x="50" y="244" on="1"/>
        <pt x="50" y="374" on="1"/>
        <pt x="200" y="374" on="1"/>
        <pt x="200" y="244" on="1"/>
      </contour>
    </TTGlyph>
    <TTGlyph name="igrave" xMin="50" yMin="244" xMax="200" yMax="374">
      <contour>
        <pt x="50" y="244" on="1"/>
        <pt x="50" y="374" on="1"/>
        <pt x="200" y="374" on="1"/>
        <pt x="200" y="244" on="1"/>
      </contour>
    </TTGlyph>
    <TTGlyph name="infinity" xMin="50" yMin="244" xMax="200" yMax="374">
      <contour>
        <pt x="50" y="244" on="1"/>
        <pt x="50" y="374" on="1"/>
        <pt x="200" y="374" on="1"/>
        <pt x="200" y="244" on="1"/>
      </contour>
    </TTGlyph>
    <TTGlyph name="integral" xMin="50" yMin="244" xMax="200" yMax="374">
      <contour>
        <pt x="50" y="244" on="1"/>
        <pt x="50" y="374" on="1"/>
        <pt x="200" y="374" on="1"/>
        <pt x="200" y="244" on="1"/>
      </contour>
    </TTGlyph>
    <TTGlyph name="j" xMin="82" yMin="-6" xMax="389" yMax="503">
      <contour>
        <pt x="82" y="344" on="1"/>
        <pt x="82" y="385" on="0"/>
        <pt x="107" y="445" on="0"/>
        <pt x="149" y="484" on="0"/>
        <pt x="206" y="503" on="0"/>
        <pt x="238" y="503" on="1"/>
        <pt x="279" y="503" on="0"/>
        <pt x="336" y="481" on="0"/>
        <pt x="372" y="423" on="0"/>
        <pt x="389" y="322" on="0"/>
        <pt x="389" y="244" on="1"/>
        <pt x="389" y="162" on="0"/>
        <pt x="364" y="63" on="0"/>
        <pt x="318" y="10" on="0"/>
        <pt x="254" y="-6" on="0"/>
        <pt x="215" y="-6" on="1"/>
        <pt x="187" y="-6" on="0"/>
        <pt x="140" y="1" on="0"/>
        <pt x="130" y="3" on="1"/>
        <pt x="130" y="97" on="1"/>
        <pt x="145" y="93" on="0"/>
        <pt x="180" y="86" on="0"/>
        <pt x="200" y="86" on="1"/>
        <pt x="219" y="86" on="0"/>
        <pt x="245" y="93" on="0"/>
        <pt x="261" y="112" on="0"/>
        <pt x="270" y="146" on="0"/>
        <pt x="272" y="174" on="1"/>
        <pt x="261" y="169" on="0"/>
        <pt x="234" y="163" on="0"/>
        <pt x="217" y="163" on="1"/>
        <pt x="141" y="163" on="0"/>
        <pt x="82" y="250" on="0"/>
      </contour>
      <contour>
        <pt x="246" y="254" on="1"/>
        <pt x="261" y="254" on="0"/>
        <pt x="274" y="260" on="1"/>
        <pt x="274" y="311" on="0"/>
        <pt x="270" y="370" on="0"/>
        <pt x="261" y="400" on="0"/>
        <pt x="246" y="409" on="0"/>
        <pt x="235" y="409" on="1"/>
        <pt x="212" y="409" on="0"/>
        <pt x="194" y="372" on="0"/>
        <pt x="194" y="344" on="1"/>
        <pt x="194" y="316" on="0"/>
        <pt x="199" y="281" on="0"/>
        <pt x="211" y="261" on="0"/>
        <pt x="231" y="254" on="0"/>
      </contour>
    </TTGlyph>
    <TTGlyph name="k" xMin="70" yMin="245" xMax="480" yMax="360">
      <contour>
        <pt x="70" y="245" on="1"/>
        <pt x="70" y="360" on="1"/>
        <pt x="480" y="360" on="1"/>
        <pt x="480" y="245" on="1"/>
      </contour>
    </TTGlyph>
    <TTGlyph name="l" xMin="35" yMin="-3" xMax="549" yMax="500">
      <contour>
        <pt x="459" y="386" on="1"/>
        <pt x="459" y="147" on="1"/>
        <pt x="459" y="127" on="0"/>
        <pt x="472" y="110" on="0"/>
        <pt x="492" y="110" on="1"/>
        <pt x="500" y="110" on="0"/>
        <pt x="515" y="113" on="0"/>
        <pt x="519" y="114" on="1"/>
        <pt x="519" y="3" on="1"/>
        <pt x="505" y="1" on="0"/>
        <pt x="471" y="-3" on="0"/>
        <pt x="441" y="-3" on="1"/>
        <pt x="377" y="-3" on="0"/>
        <pt x="326" y="71" on="0"/>
        <pt x="326" y="142" on="1"/>
        <pt x="326" y="386" on="1"/>
        <pt x="247" y="386" on="1"/>
        <pt x="247" y="0" on="1"/>
        <pt x="114" y="0" on="1"/>
        <pt x="114" y="386" on="1"/>
        <pt x="35" y="386" on="1"/>
        <pt x="35" y="500" on="1"/>
        <pt x="549" y="500" on="1"/>
        <pt x="549" y="386" on="1"/>
      </contour>
    </TTGlyph>
    <TTGlyph name="less" xMin="75" yMin="0" xMax="475" yMax="583">
      <contour>
        <pt x="75" y="0" on="1"/>
        <pt x="75" y="115" on="1"/>
        <pt x="475" y="115" on="1"/>
        <pt x="475" y="0" on="1"/>
      </contour>
      <contour>
        <pt x="75" y="264" on="1"/>
        <pt x="75" y="427" on="1"/>
        <pt x="475" y="583" on="1"/>
        <pt x="475" y="452" on="1"/>
        <pt x="186" y="349" on="1"/>
        <pt x="475" y="269" on="1"/>
        <pt x="475" y="136" on="1"/>
      </contour>
    </TTGlyph>
    <TTGlyph name="lessequal" xMin="50" yMin="244" xMax="200" yMax="374">
      <contour>
        <pt x="50" y="244" on="1"/>
        <pt x="50" y="374" on="1"/>
        <pt x="200" y="374" on="1"/>
        <pt x="200" y="244" on="1"/>
      </contour>
    </TTGlyph>
    <TTGlyph name="logicaland" xMin="50" yMin="244" xMax="200" yMax="374">
      <contour>
        <pt x="50" y="244" on="1"/>
        <pt x="50" y="374" on="1"/>
        <pt x="200" y="374" on="1"/>
        <pt x="200" y="244" on="1"/>
      </contour>
    </TTGlyph>
    <TTGlyph name="logicalnot" xMin="50" yMin="244" xMax="200" yMax="374">
      <contour>
        <pt x="50" y="244" on="1"/>
        <pt x="50" y="374" on="1"/>
        <pt x="200" y="374" on="1"/>
        <pt x="200" y="244" on="1"/>
      </contour>
    </TTGlyph>
    <TTGlyph name="lozenge" xMin="50" yMin="244" xMax="200" yMax="374">
      <contour>
        <pt x="50" y="244" on="1"/>
        <pt x="50" y="374" on="1"/>
        <pt x="200" y="374" on="1"/>
        <pt x="200" y="244" on="1"/>
      </contour>
    </TTGlyph>
    <TTGlyph name="lslash" xMin="50" yMin="244" xMax="200" yMax="374">
      <contour>
        <pt x="50" y="244" on="1"/>
        <pt x="50" y="374" on="1"/>
        <pt x="200" y="374" on="1"/>
        <pt x="200" y="244" on="1"/>
      </contour>
    </TTGlyph>
    <TTGlyph name="m" xMin="35" yMin="-9" xMax="431" yMax="709">
      <contour>
        <pt x="35" y="210" on="1"/>
        <pt x="35" y="269" on="0"/>
        <pt x="50" y="362" on="0"/>
        <pt x="89" y="426" on="0"/>
        <pt x="155" y="459" on="0"/>
        <pt x="205" y="459" on="1"/>
        <pt x="231" y="459" on="0"/>
        <pt x="276" y="444" on="0"/>
        <pt x="296" y="433" on="1"/>
        <pt x="294" y="483" on="0"/>
        <pt x="281" y="547" on="0"/>
        <pt x="256" y="585" on="0"/>
        <pt x="217" y="599" on="0"/>
        <pt x="188" y="599" on="1"/>
        <pt x="153" y="599" on="0"/>
        <pt x="99" y="590" on="0"/>
        <pt x="79" y="585" on="1"/>
        <pt x="79" y="697" on="1"/>
        <pt x="86" y="699" on="0"/>
        <pt x="112" y="703" on="0"/>
        <pt x="142" y="707" on="0"/>
        <pt x="172" y="709" on="0"/>
        <pt x="184" y="709" on="1"/>
        <pt x="246" y="709" on="0"/>
        <pt x="339" y="679" on="0"/>
        <pt x="400" y="601" on="0"/>
        <pt x="431" y="466" on="0"/>
        <pt x="431" y="361" on="1"/>
        <pt x="431" y="253" on="0"/>
        <pt x="408" y="110" on="0"/>
        <pt x="357" y="26" on="0"/>
        <pt x="276" y="-9" on="0"/>
        <pt x="218" y="-9" on="1"/>
        <pt x="190" y="-9" on="0"/>
        <pt x="126" y="9" on="0"/>
        <pt x="71" y="58" on="0"/>
        <pt x="35" y="143" on="0"/>
      </contour>
      <contour>
        <pt x="229" y="351" on="1"/>
        <pt x="196" y="351" on="0"/>
        <pt x="168" y="287" on="0"/>
        <pt x="168" y="221" on="1"/>
        <pt x="168" y="184" on="0"/>
        <pt x="175" y="137" on="0"/>
        <pt x="190" y="111" on="0"/>
        <pt x="214" y="101" on="0"/>
        <pt x="231" y="101" on="1"/>
        <pt x="248" y="101" on="0"/>
        <pt x="273" y="116" on="0"/>
        <pt x="289" y="166" on="0"/>
        <pt x="298" y="258" on="0"/>
        <pt x="298" y="334" on="1"/>
        <pt x="284" y="341" on="0"/>
        <pt x="249" y="351" on="0"/>
      </contour>
    </TTGlyph>
    <TTGlyph name="macron" xMin="50" yMin="244" xMax="200" yMax="374">
      <contour>
        <pt x="50" y="244" on="1"/>
        <pt x="50" y="374" on="1"/>
        <pt x="200" y="374" on="1"/>
        <pt x="200" y="244" on="1"/>
      </contour>
    </TTGlyph>
    <TTGlyph name="minus" xMin="50" yMin="244" xMax="200" yMax="374">
      <contour>
        <pt x="50" y="244" on="1"/>
        <pt x="50" y="374" on="1"/>
        <pt x="200" y="374" on="1"/>
        <pt x="200" y="244" on="1"/>
      </contour>
    </TTGlyph>
    <TTGlyph name="mu" xMin="50" yMin="244" xMax="200" yMax="374">
      <contour>
        <pt x="50" y="244" on="1"/>
        <pt x="50" y="374" on="1"/>
        <pt x="200" y="374" on="1"/>
        <pt x="200" y="244" on="1"/>
      </contour>
    </TTGlyph>
    <TTGlyph name="multiply" xMin="50" yMin="244" xMax="200" yMax="374">
      <contour>
        <pt x="50" y="244" on="1"/>
        <pt x="50" y="374" on="1"/>
        <pt x="200" y="374" on="1"/>
        <pt x="200" y="244" on="1"/>
      </contour>
    </TTGlyph>
    <TTGlyph name="n" xMin="-25" yMin="-242" xMax="345" yMax="829">
      <contour>
        <pt x="345" y="704" on="1"/>
        <pt x="329" y="708" on="0"/>
        <pt x="288" y="715" on="0"/>
        <pt x="261" y="715" on="1"/>
        <pt x="236" y="715" on="0"/>
        <pt x="218" y="690" on="0"/>
        <pt x="218" y="669" on="1"/>
        <pt x="218" y="-78" on="1"/>
        <pt x="218" y="-126" on="0"/>
        <pt x="200" y="-189" on="0"/>
        <pt x="162" y="-226" on="0"/>
        <pt x="102" y="-242" on="0"/>
        <pt x="60" y="-242" on="1"/>
        <pt x="36" y="-242" on="0"/>
        <pt x="-5" y="-239" on="0"/>
        <pt x="-25" y="-237" on="1"/>
        <pt x="-25" y="-125" on="1"/>
        <pt x="-12" y="-127" on="0"/>
        <pt x="26" y="-128" on="0"/>
        <pt x="38" y="-128" on="1"/>
        <pt x="65" y="-128" on="0"/>
        <pt x="85" y="-109" on="0"/>
        <pt x="85" y="-83" on="1"/>
        <pt x="85" y="660" on="1"/>
        <pt x="85" y="711" on="0"/>
        <pt x="104" y="777" on="0"/>
        <pt x="142" y="815" on="0"/>
        <pt x="199" y="829" on="0"/>
        <pt x="236" y="829" on="1"/>
        <pt x="268" y="829" on="0"/>
        <pt x="330" y="820" on="0"/>
        <pt x="345" y="817" on="1"/>
      </contour>
    </TTGlyph>
    <TTGlyph name="nine" xMin="50" yMin="244" xMax="200" yMax="374">
      <contour>
        <pt x="50" y="244" on="1"/>
        <pt x="50" y="374" on="1"/>
        <pt x="200" y="374" on="1"/>
        <pt x="200" y="244" on="1"/>
      </contour>
    </TTGlyph>
    <TTGlyph name="notequal" xMin="50" yMin="244" xMax="200" yMax="374">
      <contour>
        <pt x="50" y="244" on="1"/>
        <pt x="50" y="374" on="1"/>
        <pt x="200" y="374" on="1"/>
        <pt x="200" y="244" on="1"/>
      </contour>
    </TTGlyph>
    <TTGlyph name="ntilde" xMin="50" yMin="244" xMax="200" yMax="374">
      <contour>
        <pt x="50" y="244" on="1"/>
        <pt x="50" y="374" on="1"/>
        <pt x="200" y="374" on="1"/>
        <pt x="200" y="244" on="1"/>
      </contour>
    </TTGlyph>
    <TTGlyph name="numbersign" xMin="15" yMin="0" xMax="525" yMax="700">
      <contour>
        <pt x="15" y="0" on="1"/>
        <pt x="176" y="700" on="1"/>
        <pt x="371" y="700" on="1"/>
        <pt x="525" y="0" on="1"/>
      </contour>
      <contour>
        <pt x="273" y="594" on="1"/>
        <pt x="176" y="113" on="1"/>
        <pt x="364" y="113" on="1"/>
      </contour>
    </TTGlyph>
    <TTGlyph name="o" xMin="56" yMin="118" xMax="531" yMax="630">
      <contour>
        <pt x="362" y="298" on="1"/>
        <pt x="531" y="426" on="1"/>
        <pt x="531" y="281" on="1"/>
        <pt x="294" y="118" on="1"/>
        <pt x="56" y="281" on="1"/>
        <pt x="56" y="426" on="1"/>
        <pt x="226" y="298" on="1"/>
        <pt x="226" y="630" on="1"/>
        <pt x="362" y="630" on="1"/>
      </contour>
    </TTGlyph>
    <TTGlyph name="oacute" xMin="50" yMin="244" xMax="200" yMax="374">
      <contour>
        <pt x="50" y="244" on="1"/>
        <pt x="50" y="374" on="1"/>
        <pt x="200" y="374" on="1"/>
        <pt x="200" y="244" on="1"/>
      </contour>
    </TTGlyph>
    <TTGlyph name="ocircumflex" xMin="50" yMin="244" xMax="200" yMax="374">
      <contour>
        <pt x="50" y="244" on="1"/>
        <pt x="50" y="374" on="1"/>
        <pt x="200" y="374" on="1"/>
        <pt x="200" y="244" on="1"/>
      </contour>
    </TTGlyph>
    <TTGlyph name="odieresis" xMin="50" yMin="244" xMax="200" yMax="374">
      <contour>
        <pt x="50" y="244" on="1"/>
        <pt x="50" y="374" on="1"/>
        <pt x="200" y="374" on="1"/>
        <pt x="200" y="244" on="1"/>
      </contour>
    </TTGlyph>
    <TTGlyph name="oe" xMin="50" yMin="244" xMax="200" yMax="374">
      <contour>
        <pt x="50" y="244" on="1"/>
        <pt x="50" y="374" on="1"/>
        <pt x="200" y="374" on="1"/>
        <pt x="200" y="244" on="1"/>
      </contour>
    </TTGlyph>
    <TTGlyph name="ogonek" xMin="50" yMin="244" xMax="200" yMax="374">
      <contour>
        <pt x="50" y="244" on="1"/>
        <pt x="50" y="374" on="1"/>
        <pt x="200" y="374" on="1"/>
        <pt x="200" y="244" on="1"/>
      </contour>
    </TTGlyph>
    <TTGlyph name="ograve" xMin="50" yMin="244" xMax="200" yMax="374">
      <contour>
        <pt x="50" y="244" on="1"/>
        <pt x="50" y="374" on="1"/>
        <pt x="200" y="374" on="1"/>
        <pt x="200" y="244" on="1"/>
      </contour>
    </TTGlyph>
    <TTGlyph name="one" xMin="50" yMin="244" xMax="200" yMax="374">
      <contour>
        <pt x="50" y="244" on="1"/>
        <pt x="50" y="374" on="1"/>
        <pt x="200" y="374" on="1"/>
        <pt x="200" y="244" on="1"/>
      </contour>
    </TTGlyph>
    <TTGlyph name="onehalf" xMin="50" yMin="244" xMax="200" yMax="374">
      <contour>
        <pt x="50" y="244" on="1"/>
        <pt x="50" y="374" on="1"/>
        <pt x="200" y="374" on="1"/>
        <pt x="200" y="244" on="1"/>
      </contour>
    </TTGlyph>
    <TTGlyph name="onequarter" xMin="50" yMin="244" xMax="200" yMax="374">
      <contour>
        <pt x="50" y="244" on="1"/>
        <pt x="50" y="374" on="1"/>
        <pt x="200" y="374" on="1"/>
        <pt x="200" y="244" on="1"/>
      </contour>
    </TTGlyph>
    <TTGlyph name="onesuperior" xMin="50" yMin="244" xMax="200" yMax="374">
      <contour>
        <pt x="50" y="244" on="1"/>
        <pt x="50" y="374" on="1"/>
        <pt x="200" y="374" on="1"/>
        <pt x="200" y="244" on="1"/>
      </contour>
    </TTGlyph>
    <TTGlyph name="ordfeminine" xMin="50" yMin="244" xMax="200" yMax="374">
      <contour>
        <pt x="50" y="244" on="1"/>
        <pt x="50" y="374" on="1"/>
        <pt x="200" y="374" on="1"/>
        <pt x="200" y="244" on="1"/>
      </contour>
    </TTGlyph>
    <TTGlyph name="ordmasculine" xMin="50" yMin="244" xMax="200" yMax="374">
      <contour>
        <pt x="50" y="244" on="1"/>
        <pt x="50" y="374" on="1"/>
        <pt x="200" y="374" on="1"/>
        <pt x="200" y="244" on="1"/>
      </contour>
    </TTGlyph>
    <TTGlyph name="oslash" xMin="50" yMin="244" xMax="200" yMax="374">
      <contour>
        <pt x="50" y="244" on="1"/>
        <pt x="50" y="374" on="1"/>
        <pt x="200" y="374" on="1"/>
        <pt x="200" y="244" on="1"/>
      </contour>
    </TTGlyph>
    <TTGlyph name="otilde" xMin="50" yMin="244" xMax="200" yMax="374">
      <contour>
        <pt x="50" y="244" on="1"/>
        <pt x="50" y="374" on="1"/>
        <pt x="200" y="374" on="1"/>
        <pt x="200" y="244" on="1"/>
      </contour>
    </TTGlyph>
    <TTGlyph name="p" xMin="37" yMin="138" xMax="549" yMax="613">
      <contour>
        <pt x="227" y="312" on="1"/>
        <pt x="355" y="138" on="1"/>
        <pt x="200" y="138" on="1"/>
        <pt x="37" y="375" on="1"/>
        <pt x="200" y="613" on="1"/>
        <pt x="355" y="613" on="1"/>
        <pt x="227" y="438" on="1"/>
        <pt x="549" y="438" on="1"/>
        <pt x="549" y="312" on="1"/>
      </contour>
    </TTGlyph>
    <TTGlyph name="paragraph" xMin="40" yMin="0" xMax="500" yMax="709">
      <contour>
        <pt x="377" y="0" on="1"/>
        <pt x="377" y="700" on="1"/>
        <pt x="500" y="700" on="1"/>
        <pt x="500" y="0" on="1"/>
      </contour>
      <contour>
        <pt x="333" y="0" on="1"/>
        <pt x="207" y="0" on="1"/>
        <pt x="207" y="354" on="1"/>
        <pt x="188" y="354" on="1"/>
        <pt x="161" y="354" on="0"/>
        <pt x="108" y="368" on="0"/>
        <pt x="66" y="407" on="0"/>
        <pt x="40" y="477" on="0"/>
        <pt x="40" y="533" on="1"/>
        <pt x="40" y="587" on="0"/>
        <pt x="69" y="656" on="0"/>
        <pt x="116" y="695" on="0"/>
        <pt x="177" y="709" on="0"/>
        <pt x="209" y="709" on="1"/>
        <pt x="234" y="709" on="0"/>
        <pt x="278" y="707" on="0"/>
        <pt x="295" y="705" on="1"/>
        <pt x="315" y="703" on="0"/>
        <pt x="333" y="700" on="1"/>
        <pt x="333" y="593" on="1"/>
        <pt x="313" y="597" on="0"/>
        <pt x="264" y="602" on="0"/>
        <pt x="249" y="602" on="1"/>
        <pt x="200" y="602" on="0"/>
        <pt x="164" y="572" on="0"/>
        <pt x="164" y="531" on="1"/>
        <pt x="164" y="492" on="0"/>
        <pt x="196" y="462" on="0"/>
        <pt x="228" y="462" on="1"/>
        <pt x="333" y="462" on="1"/>
      </contour>
    </TTGlyph>
    <TTGlyph name="parenleft" xMin="60" yMin="585" xMax="203" yMax="700">
      <contour>
        <pt x="60" y="585" on="1"/>
        <pt x="60" y="700" on="1"/>
        <pt x="203" y="700" on="1"/>
        <pt x="203" y="585" on="1"/>
      </contour>
    </TTGlyph>
    <TTGlyph name="parenright" xMin="25" yMin="523" xMax="257" yMax="767">
      <contour>
        <pt x="169" y="646" on="1"/>
        <pt x="169" y="671" on="0"/>
        <pt x="159" y="695" on="0"/>
        <pt x="141" y="695" on="1"/>
        <pt x="123" y="695" on="0"/>
        <pt x="113" y="671" on="0"/>
        <pt x="113" y="646" on="1"/>
        <pt x="113" y="621" on="0"/>
        <pt x="123" y="597" on="0"/>
        <pt x="141" y="597" on="1"/>
        <pt x="158" y="597" on="0"/>
        <pt x="169" y="621" on="0"/>
      </contour>
      <contour>
        <pt x="257" y="645" on="1"/>
        <pt x="257" y="587" on="0"/>
        <pt x="202" y="523" on="0"/>
        <pt x="141" y="523" on="1"/>
        <pt x="80" y="523" on="0"/>
        <pt x="25" y="587" on="0"/>
        <pt x="25" y="645" on="1"/>
        <pt x="25" y="703" on="0"/>
        <pt x="81" y="767" on="0"/>
        <pt x="141" y="767" on="1"/>
        <pt x="201" y="767" on="0"/>
        <pt x="257" y="703" on="0"/>
      </contour>
    </TTGlyph>
    <TTGlyph name="partialdiff" xMin="50" yMin="244" xMax="200" yMax="374">
      <contour>
        <pt x="50" y="244" on="1"/>
        <pt x="50" y="374" on="1"/>
        <pt x="200" y="374" on="1"/>
        <pt x="200" y="244" on="1"/>
      </contour>
    </TTGlyph>
    <TTGlyph name="percent" xMin="25" yMin="0" xMax="469" yMax="700">
      <contour>
        <pt x="340" y="0" on="1"/>
        <pt x="152" y="0" on="1"/>
        <pt x="25" y="350" on="1"/>
        <pt x="154" y="700" on="1"/>
        <pt x="340" y="700" on="1"/>
        <pt x="469" y="350" on="1"/>
      </contour>
      <contour>
        <pt x="247" y="597" on="1"/>
        <pt x="167" y="350" on="1"/>
        <pt x="247" y="103" on="1"/>
        <pt x="327" y="350" on="1"/>
      </contour>
    </TTGlyph>
    <TTGlyph name="period" xMin="65" yMin="0" xMax="198" yMax="500">
      <contour>
        <pt x="65" y="0" on="1"/>
        <pt x="65" y="500" on="1"/>
        <pt x="198" y="500" on="1"/>
        <pt x="198" y="0" on="1"/>
      </contour>
    </TTGlyph>
    <TTGlyph name="periodcentered" xMin="50" yMin="244" xMax="200" yMax="374">
      <contour>
        <pt x="50" y="244" on="1"/>
        <pt x="50" y="374" on="1"/>
        <pt x="200" y="374" on="1"/>
        <pt x="200" y="244" on="1"/>
      </contour>
    </TTGlyph>
    <TTGlyph name="perthousand" xMin="50" yMin="244" xMax="200" yMax="374">
      <contour>
        <pt x="50" y="244" on="1"/>
        <pt x="50" y="374" on="1"/>
        <pt x="200" y="374" on="1"/>
        <pt x="200" y="244" on="1"/>
      </contour>
    </TTGlyph>
    <TTGlyph name="pi" xMin="50" yMin="244" xMax="200" yMax="374">
      <contour>
        <pt x="50" y="244" on="1"/>
        <pt x="50" y="374" on="1"/>
        <pt x="200" y="374" on="1"/>
        <pt x="200" y="244" on="1"/>
      </contour>
    </TTGlyph>
    <TTGlyph name="plus" xMin="65" yMin="-198" xMax="274" yMax="60">
      <contour>
        <pt x="274" y="-188" on="1"/>
        <pt x="267" y="-190" on="0"/>
        <pt x="245" y="-193" on="0"/>
        <pt x="221" y="-196" on="0"/>
        <pt x="198" y="-198" on="0"/>
        <pt x="189" y="-198" on="1"/>
        <pt x="118" y="-198" on="0"/>
        <pt x="65" y="-132" on="0"/>
        <pt x="65" y="-70" on="1"/>
        <pt x="65" y="-23" on="0"/>
        <pt x="100" y="39" on="0"/>
        <pt x="119" y="60" on="1"/>
        <pt x="219" y="60" on="1"/>
        <pt x="199" y="30" on="0"/>
        <pt x="174" y="-35" on="0"/>
        <pt x="174" y="-54" on="1"/>
        <pt x="174" y="-74" on="0"/>
        <pt x="193" y="-100" on="0"/>
        <pt x="213" y="-100" on="1"/>
        <pt x="224" y="-100" on="0"/>
        <pt x="260" y="-95" on="0"/>
        <pt x="274" y="-93" on="1"/>
      </contour>
    </TTGlyph>
    <TTGlyph name="plusminus" xMin="50" yMin="244" xMax="200" yMax="374">
      <contour>
        <pt x="50" y="244" on="1"/>
        <pt x="50" y="374" on="1"/>
        <pt x="200" y="374" on="1"/>
        <pt x="200" y="244" on="1"/>
      </contour>
    </TTGlyph>
    <TTGlyph name="product" xMin="50" yMin="244" xMax="200" yMax="374">
      <contour>
        <pt x="50" y="244" on="1"/>
        <pt x="50" y="374" on="1"/>
        <pt x="200" y="374" on="1"/>
        <pt x="200" y="244" on="1"/>
      </contour>
    </TTGlyph>
    <TTGlyph name="q" xMin="66" yMin="148" xMax="526" yMax="609">
      <contour>
        <pt x="389" y="377" on="1"/>
        <pt x="420" y="590" on="1"/>
        <pt x="526" y="484" on="1"/>
        <pt x="474" y="201" on="1"/>
        <pt x="190" y="148" on="1"/>
        <pt x="84" y="254" on="1"/>
        <pt x="297" y="286" on="1"/>
        <pt x="66" y="517" on="1"/>
        <pt x="158" y="609" on="1"/>
      </contour>
    </TTGlyph>
    <TTGlyph name="question" xMin="13" yMin="28" xMax="557" yMax="572">
      <contour>
        <pt x="85" y="185" on="1"/>
        <pt x="74" y="210" on="0"/>
        <pt x="65" y="268" on="0"/>
        <pt x="65" y="300" on="1"/>
        <pt x="65" y="365" on="0"/>
        <pt x="86" y="414" on="1"/>
        <pt x="13" y="487" on="1"/>
        <pt x="98" y="572" on="1"/>
        <pt x="164" y="506" on="1"/>
        <pt x="215" y="537" on="0"/>
        <pt x="285" y="537" on="1"/>
        <pt x="353" y="537" on="0"/>
        <pt x="406" y="506" on="1"/>
        <pt x="472" y="572" on="1"/>
        <pt x="557" y="487" on="1"/>
        <pt x="489" y="419" on="1"/>
        <pt x="515" y="367" on="0"/>
        <pt x="515" y="300" on="1"/>
        <pt x="515" y="234" on="0"/>
        <pt x="489" y="180" on="1"/>
        <pt x="557" y="113" on="1"/>
        <pt x="472" y="28" on="1"/>
        <pt x="407" y="92" on="1"/>
        <pt x="357" y="63" on="0"/>
        <pt x="285" y="63" on="1"/>
        <pt x="212" y="63" on="0"/>
        <pt x="162" y="92" on="1"/>
        <pt x="98" y="28" on="1"/>
        <pt x="13" y="113" on="1"/>
      </contour>
      <contour>
        <pt x="383" y="300" on="1"/>
        <pt x="383" y="356" on="0"/>
        <pt x="335" y="430" on="0"/>
        <pt x="285" y="430" on="1"/>
        <pt x="235" y="430" on="0"/>
        <pt x="187" y="356" on="0"/>
        <pt x="187" y="300" on="1"/>
        <pt x="187" y="244" on="0"/>
        <pt x="235" y="170" on="0"/>
        <pt x="285" y="170" on="1"/>
        <pt x="310" y="170" on="0"/>
        <pt x="347" y="190" on="0"/>
        <pt x="371" y="225" on="0"/>
        <pt x="383" y="272" on="0"/>
      </contour>
    </TTGlyph>
    <TTGlyph name="questiondown" xMin="50" yMin="244" xMax="200" yMax="374">
      <contour>
        <pt x="50" y="244" on="1"/>
        <pt x="50" y="374" on="1"/>
        <pt x="200" y="374" on="1"/>
        <pt x="200" y="244" on="1"/>
      </contour>
    </TTGlyph>
    <TTGlyph name="quotedbl" xMin="75" yMin="139" xMax="435" yMax="466">
      <contour>
        <pt x="75" y="431" on="1"/>
        <pt x="110" y="452" on="0"/>
        <pt x="157" y="466" on="0"/>
        <pt x="179" y="466" on="1"/>
        <pt x="199" y="466" on="0"/>
        <pt x="240" y="454" on="0"/>
        <pt x="281" y="439" on="0"/>
        <pt x="321" y="427" on="0"/>
        <pt x="340" y="427" on="1"/>
        <pt x="366" y="427" on="0"/>
        <pt x="414" y="447" on="0"/>
        <pt x="435" y="461" on="1"/>
        <pt x="435" y="343" on="1"/>
        <pt x="412" y="328" on="0"/>
        <pt x="359" y="308" on="0"/>
        <pt x="331" y="308" on="1"/>
        <pt x="310" y="308" on="0"/>
        <pt x="271" y="321" on="0"/>
        <pt x="232" y="336" on="0"/>
        <pt x="193" y="349" on="0"/>
        <pt x="172" y="349" on="1"/>
        <pt x="146" y="349" on="0"/>
        <pt x="96" y="327" on="0"/>
        <pt x="75" y="313" on="1"/>
      </contour>
      <contour>
        <pt x="75" y="262" on="1"/>
        <pt x="110" y="283" on="0"/>
        <pt x="157" y="297" on="0"/>
        <pt x="179" y="297" on="1"/>
        <pt x="199" y="297" on="0"/>
        <pt x="240" y="285" on="0"/>
        <pt x="281" y="270" on="0"/>
        <pt x="321" y="258" on="0"/>
        <pt x="340" y="258" on="1"/>
        <pt x="366" y="258" on="0"/>
        <pt x="414" y="278" on="0"/>
        <pt x="435" y="292" on="1"/>
        <pt x="435" y="174" on="1"/>
        <pt x="412" y="159" on="0"/>
        <pt x="359" y="139" on="0"/>
        <pt x="331" y="139" on="1"/>
        <pt x="310" y="139" on="0"/>
        <pt x="271" y="152" on="0"/>
        <pt x="232" y="167" on="0"/>
        <pt x="193" y="180" on="0"/>
        <pt x="172" y="180" on="1"/>
        <pt x="146" y="180" on="0"/>
        <pt x="96" y="158" on="0"/>
        <pt x="75" y="144" on="1"/>
      </contour>
    </TTGlyph>
    <TTGlyph name="quotedblbase" xMin="50" yMin="244" xMax="200" yMax="374">
      <contour>
        <pt x="50" y="244" on="1"/>
        <pt x="50" y="374" on="1"/>
        <pt x="200" y="374" on="1"/>
        <pt x="200" y="244" on="1"/>
      </contour>
    </TTGlyph>
    <TTGlyph name="quotedblleft" xMin="50" yMin="244" xMax="200" yMax="374">
      <contour>
        <pt x="50" y="244" on="1"/>
        <pt x="50" y="374" on="1"/>
        <pt x="200" y="374" on="1"/>
        <pt x="200" y="244" on="1"/>
      </contour>
    </TTGlyph>
    <TTGlyph name="quotedblright" xMin="50" yMin="244" xMax="200" yMax="374">
      <contour>
        <pt x="50" y="244" on="1"/>
        <pt x="50" y="374" on="1"/>
        <pt x="200" y="374" on="1"/>
        <pt x="200" y="244" on="1"/>
      </contour>
    </TTGlyph>
    <TTGlyph name="quoteleft" xMin="50" yMin="244" xMax="200" yMax="374">
      <contour>
        <pt x="50" y="244" on="1"/>
        <pt x="50" y="374" on="1"/>
        <pt x="200" y="374" on="1"/>
        <pt x="200" y="244" on="1"/>
      </contour>
    </TTGlyph>
    <TTGlyph name="quoteright" xMin="50" yMin="244" xMax="200" yMax="374">
      <contour>
        <pt x="50" y="244" on="1"/>
        <pt x="50" y="374" on="1"/>
        <pt x="200" y="374" on="1"/>
        <pt x="200" y="244" on="1"/>
      </contour>
    </TTGlyph>
    <TTGlyph name="quotesinglbase" xMin="50" yMin="244" xMax="200" yMax="374">
      <contour>
        <pt x="50" y="244" on="1"/>
        <pt x="50" y="374" on="1"/>
        <pt x="200" y="374" on="1"/>
        <pt x="200" y="244" on="1"/>
      </contour>
    </TTGlyph>
    <TTGlyph name="quotesingle" xMin="50" yMin="244" xMax="200" yMax="374">
      <contour>
        <pt x="50" y="244" on="1"/>
        <pt x="50" y="374" on="1"/>
        <pt x="200" y="374" on="1"/>
        <pt x="200" y="244" on="1"/>
      </contour>
    </TTGlyph>
    <TTGlyph name="r" xMin="66" yMin="148" xMax="527" yMax="608">
      <contour>
        <pt x="295" y="285" on="1"/>
        <pt x="508" y="254" on="1"/>
        <pt x="402" y="148" on="1"/>
        <pt x="119" y="200" on="1"/>
        <pt x="66" y="484" on="1"/>
        <pt x="172" y="590" on="1"/>
        <pt x="204" y="377" on="1"/>
        <pt x="435" y="608" on="1"/>
        <pt x="527" y="516" on="1"/>
      </contour>
    </TTGlyph>
    <TTGlyph name="radical" xMin="50" yMin="244" xMax="200" yMax="374">
      <contour>
        <pt x="50" y="244" on="1"/>
        <pt x="50" y="374" on="1"/>
        <pt x="200" y="374" on="1"/>
        <pt x="200" y="244" on="1"/>
      </contour>
    </TTGlyph>
    <TTGlyph name="registered" xMin="50" yMin="244" xMax="200" yMax="374">
      <contour>
        <pt x="50" y="244" on="1"/>
        <pt x="50" y="374" on="1"/>
        <pt x="200" y="374" on="1"/>
        <pt x="200" y="244" on="1"/>
      </contour>
    </TTGlyph>
    <TTGlyph name="ring" xMin="50" yMin="244" xMax="200" yMax="374">
      <contour>
        <pt x="50" y="244" on="1"/>
        <pt x="50" y="374" on="1"/>
        <pt x="200" y="374" on="1"/>
        <pt x="200" y="244" on="1"/>
      </contour>
    </TTGlyph>
    <TTGlyph name="s" xMin="90" yMin="0" xMax="690" yMax="700">
      <contour>
        <pt x="90" y="0" on="1"/>
        <pt x="90" y="700" on="1"/>
        <pt x="690" y="700" on="1"/>
        <pt x="690" y="0" on="1"/>
      </contour>
    </TTGlyph>
    <TTGlyph name="scaron" xMin="50" yMin="244" xMax="200" yMax="374">
      <contour>
        <pt x="50" y="244" on="1"/>
        <pt x="50" y="374" on="1"/>
        <pt x="200" y="374" on="1"/>
        <pt x="200" y="244" on="1"/>
      </contour>
    </TTGlyph>
    <TTGlyph name="section" xMin="50" yMin="244" xMax="200" yMax="374">
      <contour>
        <pt x="50" y="244" on="1"/>
        <pt x="50" y="374" on="1"/>
        <pt x="200" y="374" on="1"/>
        <pt x="200" y="244" on="1"/>
      </contour>
    </TTGlyph>
    <TTGlyph name="semicolon" xMin="50" yMin="244" xMax="200" yMax="374">
      <contour>
        <pt x="50" y="244" on="1"/>
        <pt x="50" y="374" on="1"/>
        <pt x="200" y="374" on="1"/>
        <pt x="200" y="244" on="1"/>
      </contour>
    </TTGlyph>
    <TTGlyph name="seven" xMin="50" yMin="244" xMax="200" yMax="374">
      <contour>
        <pt x="50" y="244" on="1"/>
        <pt x="50" y="374" on="1"/>
        <pt x="200" y="374" on="1"/>
        <pt x="200" y="244" on="1"/>
      </contour>
    </TTGlyph>
    <TTGlyph name="six" xMin="50" yMin="244" xMax="200" yMax="374">
      <contour>
        <pt x="50" y="244" on="1"/>
        <pt x="50" y="374" on="1"/>
        <pt x="200" y="374" on="1"/>
        <pt x="200" y="244" on="1"/>
      </contour>
    </TTGlyph>
    <TTGlyph name="slash" xMin="-100" yMin="-100" xMax="329" yMax="810">
      <contour>
        <pt x="19" y="-100" on="1"/>
        <pt x="-100" y="-100" on="1"/>
        <pt x="210" y="810" on="1"/>
        <pt x="329" y="810" on="1"/>
      </contour>
    </TTGlyph>
    <TTGlyph name="sterling" xMin="50" yMin="244" xMax="200" yMax="374">
      <contour>
        <pt x="50" y="244" on="1"/>
        <pt x="50" y="374" on="1"/>
        <pt x="200" y="374" on="1"/>
        <pt x="200" y="244" on="1"/>
      </contour>
    </TTGlyph>
    <TTGlyph name="summation" xMin="50" yMin="244" xMax="200" yMax="374">
      <contour>
        <pt x="50" y="244" on="1"/>
        <pt x="50" y="374" on="1"/>
        <pt x="200" y="374" on="1"/>
        <pt x="200" y="244" on="1"/>
      </contour>
    </TTGlyph>
    <TTGlyph name="t" xMin="90" yMin="-170" xMax="690" yMax="850">
      <contour>
        <pt x="90" y="-170" on="1"/>
        <pt x="90" y="850" on="1"/>
        <pt x="690" y="850" on="1"/>
        <pt x="690" y="-170" on="1"/>
      </contour>
    </TTGlyph>
    <TTGlyph name="thorn" xMin="50" yMin="244" xMax="200" yMax="374">
      <contour>
        <pt x="50" y="244" on="1"/>
        <pt x="50" y="374" on="1"/>
        <pt x="200" y="374" on="1"/>
        <pt x="200" y="244" on="1"/>
      </contour>
    </TTGlyph>
    <TTGlyph name="three" xMin="50" yMin="244" xMax="200" yMax="374">
      <contour>
        <pt x="50" y="244" on="1"/>
        <pt x="50" y="374" on="1"/>
        <pt x="200" y="374" on="1"/>
        <pt x="200" y="244" on="1"/>
      </contour>
    </TTGlyph>
    <TTGlyph name="threequarters" xMin="50" yMin="244" xMax="200" yMax="374">
      <contour>
        <pt x="50" y="244" on="1"/>
        <pt x="50" y="374" on="1"/>
        <pt x="200" y="374" on="1"/>
        <pt x="200" y="244" on="1"/>
      </contour>
    </TTGlyph>
    <TTGlyph name="threesuperior" xMin="50" yMin="244" xMax="200" yMax="374">
      <contour>
        <pt x="50" y="244" on="1"/>
        <pt x="50" y="374" on="1"/>
        <pt x="200" y="374" on="1"/>
        <pt x="200" y="244" on="1"/>
      </contour>
    </TTGlyph>
    <TTGlyph name="tilde" xMin="50" yMin="244" xMax="200" yMax="374">
      <contour>
        <pt x="50" y="244" on="1"/>
        <pt x="50" y="374" on="1"/>
        <pt x="200" y="374" on="1"/>
        <pt x="200" y="244" on="1"/>
      </contour>
    </TTGlyph>
    <TTGlyph name="trademark" xMin="50" yMin="244" xMax="200" yMax="374">
      <contour>
        <pt x="50" y="244" on="1"/>
        <pt x="50" y="374" on="1"/>
        <pt x="200" y="374" on="1"/>
        <pt x="200" y="244" on="1"/>
      </contour>
    </TTGlyph>
    <TTGlyph name="two" xMin="50" yMin="244" xMax="200" yMax="374">
      <contour>
        <pt x="50" y="244" on="1"/>
        <pt x="50" y="374" on="1"/>
        <pt x="200" y="374" on="1"/>
        <pt x="200" y="244" on="1"/>
      </contour>
    </TTGlyph>
    <TTGlyph name="twosuperior" xMin="50" yMin="244" xMax="200" yMax="374">
      <contour>
        <pt x="50" y="244" on="1"/>
        <pt x="50" y="374" on="1"/>
        <pt x="200" y="374" on="1"/>
        <pt x="200" y="244" on="1"/>
      </contour>
    </TTGlyph>
    <TTGlyph name="u" xMin="50" yMin="-9" xMax="453" yMax="750">
      <contour>
        <pt x="50" y="210" on="1"/>
        <pt x="50" y="269" on="0"/>
        <pt x="66" y="365" on="0"/>
        <pt x="106" y="433" on="0"/>
        <pt x="173" y="469" on="0"/>
        <pt x="223" y="469" on="1"/>
        <pt x="249" y="469" on="0"/>
        <pt x="294" y="458" on="0"/>
        <pt x="314" y="448" on="1"/>
        <pt x="308" y="489" on="0"/>
        <pt x="285" y="541" on="0"/>
        <pt x="270" y="558" on="1"/>
        <pt x="247" y="516" on="1"/>
        <pt x="140" y="516" on="1"/>
        <pt x="183" y="595" on="1"/>
        <pt x="163" y="597" on="0"/>
        <pt x="120" y="597" on="0"/>
        <pt x="97" y="597" on="1"/>
        <pt x="97" y="709" on="1"/>
        <pt x="137" y="709" on="0"/>
        <pt x="209" y="706" on="0"/>
        <pt x="241" y="701" on="1"/>
        <pt x="268" y="750" on="1"/>
        <pt x="375" y="750" on="1"/>
        <pt x="333" y="673" on="1"/>
        <pt x="362" y="658" on="0"/>
        <pt x="407" y="609" on="0"/>
        <pt x="437" y="534" on="0"/>
        <pt x="453" y="430" on="0"/>
        <pt x="453" y="361" on="1"/>
        <pt x="453" y="253" on="0"/>
        <pt x="429" y="110" on="0"/>
        <pt x="376" y="26" on="0"/>
        <pt x="294" y="-9" on="0"/>
        <pt x="236" y="-9" on="1"/>
        <pt x="208" y="-9" on="0"/>
        <pt x="143" y="9" on="0"/>
        <pt x="87" y="58" on="0"/>
        <pt x="50" y="143" on="0"/>
      </contour>
      <contour>
        <pt x="247" y="361" on="1"/>
        <pt x="214" y="361" on="0"/>
        <pt x="183" y="287" on="0"/>
        <pt x="183" y="221" on="1"/>
        <pt x="183" y="184" on="0"/>
        <pt x="191" y="137" on="0"/>
        <pt x="207" y="111" on="0"/>
        <pt x="232" y="101" on="0"/>
        <pt x="249" y="101" on="1"/>
        <pt x="266" y="101" on="0"/>
        <pt x="292" y="117" on="0"/>
        <pt x="310" y="169" on="0"/>
        <pt x="320" y="265" on="0"/>
        <pt x="320" y="346" on="1"/>
        <pt x="304" y="352" on="0"/>
        <pt x="267" y="361" on="0"/>
      </contour>
    </TTGlyph>
    <TTGlyph name="uacute" xMin="50" yMin="244" xMax="200" yMax="374">
      <contour>
        <pt x="50" y="244" on="1"/>
        <pt x="50" y="374" on="1"/>
        <pt x="200" y="374" on="1"/>
        <pt x="200" y="244" on="1"/>
      </contour>
    </TTGlyph>
    <TTGlyph name="ucircumflex" xMin="50" yMin="244" xMax="200" yMax="374">
      <contour>
        <pt x="50" y="244" on="1"/>
        <pt x="50" y="374" on="1"/>
        <pt x="200" y="374" on="1"/>
        <pt x="200" y="244" on="1"/>
      </contour>
    </TTGlyph>
    <TTGlyph name="udieresis" xMin="50" yMin="244" xMax="200" yMax="374">
      <contour>
        <pt x="50" y="244" on="1"/>
        <pt x="50" y="374" on="1"/>
        <pt x="200" y="374" on="1"/>
        <pt x="200" y="244" on="1"/>
      </contour>
    </TTGlyph>
    <TTGlyph name="ugrave" xMin="50" yMin="244" xMax="200" yMax="374">
      <contour>
        <pt x="50" y="244" on="1"/>
        <pt x="50" y="374" on="1"/>
        <pt x="200" y="374" on="1"/>
        <pt x="200" y="244" on="1"/>
      </contour>
    </TTGlyph>
    <TTGlyph name="underscore" xMin="25" yMin="-177" xMax="478" yMax="709">
      <contour>
        <pt x="478" y="-13" on="1"/>
        <pt x="478" y="-61" on="0"/>
        <pt x="460" y="-124" on="0"/>
        <pt x="422" y="-161" on="0"/>
        <pt x="362" y="-177" on="0"/>
        <pt x="320" y="-177" on="1"/>
        <pt x="296" y="-177" on="0"/>
        <pt x="255" y="-174" on="0"/>
        <pt x="235" y="-172" on="1"/>
        <pt x="235" y="-60" on="1"/>
        <pt x="248" y="-62" on="0"/>
        <pt x="286" y="-63" on="0"/>
        <pt x="298" y="-63" on="1"/>
        <pt x="325" y="-63" on="0"/>
        <pt x="345" y="-44" on="0"/>
        <pt x="345" y="-18" on="1"/>
        <pt x="345" y="387" on="1"/>
        <pt x="223" y="387" on="1"/>
        <pt x="223" y="0" on="1"/>
        <pt x="90" y="0" on="1"/>
        <pt x="90" y="387" on="1"/>
        <pt x="25" y="387" on="1"/>
        <pt x="25" y="500" on="1"/>
        <pt x="90" y="500" on="1"/>
        <pt x="90" y="540" on="1"/>
        <pt x="90" y="591" on="0"/>
        <pt x="111" y="657" on="0"/>
        <pt x="154" y="695" on="0"/>
        <pt x="218" y="709" on="0"/>
        <pt x="261" y="709" on="1"/>
        <pt x="285" y="709" on="0"/>
        <pt x="336" y="706" on="0"/>
        <pt x="383" y="700" on="0"/>
        <pt x="425" y="694" on="0"/>
        <pt x="441" y="691" on="1"/>
        <pt x="441" y="578" on="1"/>
        <pt x="414" y="583" on="0"/>
        <pt x="332" y="595" on="0"/>
        <pt x="286" y="595" on="1"/>
        <pt x="248" y="595" on="0"/>
        <pt x="223" y="578" on="0"/>
        <pt x="223" y="549" on="1"/>
        <pt x="223" y="500" on="1"/>
        <pt x="478" y="500" on="1"/>
      </contour>
    </TTGlyph>
    <TTGlyph name="uni00AD" xMin="75" yMin="245" xMax="420" yMax="360">
      <contour>
        <pt x="75" y="245" on="1"/>
        <pt x="75" y="360" on="1"/>
        <pt x="420" y="360" on="1"/>
        <pt x="420" y="245" on="1"/>
      </contour>
    </TTGlyph>
    <TTGlyph name="uni2219" xMin="50" yMin="244" xMax="200" yMax="374">
      <contour>
        <pt x="50" y="244" on="1"/>
        <pt x="50" y="374" on="1"/>
        <pt x="200" y="374" on="1"/>
        <pt x="200" y="244" on="1"/>
      </contour>
    </TTGlyph>
    <TTGlyph name="uni2224" xMin="50" yMin="244" xMax="200" yMax="374">
      <contour>
        <pt x="50" y="244" on="1"/>
        <pt x="50" y="374" on="1"/>
        <pt x="200" y="374" on="1"/>
        <pt x="200" y="244" on="1"/>
      </contour>
    </TTGlyph>
    <TTGlyph name="uni25AF" xMin="50" yMin="0" xMax="450" yMax="707">
      <contour>
        <pt x="50" y="707" on="1"/>
        <pt x="450" y="707" on="1"/>
        <pt x="450" y="0" on="1"/>
        <pt x="50" y="0" on="1"/>
      </contour>
      <contour>
        <pt x="400" y="50" on="1"/>
        <pt x="400" y="657" on="1"/>
        <pt x="100" y="657" on="1"/>
        <pt x="100" y="50" on="1"/>
      </contour>
    </TTGlyph>
    <TTGlyph name="v" xMin="25" yMin="-5" xMax="275" yMax="700">
      <contour>
        <pt x="275" y="3" on="1"/>
        <pt x="264" y="1" on="0"/>
        <pt x="213" y="-5" on="0"/>
        <pt x="184" y="-5" on="1"/>
        <pt x="122" y="-5" on="0"/>
        <pt x="75" y="70" on="0"/>
        <pt x="75" y="148" on="1"/>
        <pt x="75" y="319" on="1"/>
        <pt x="25" y="290" on="1"/>
        <pt x="25" y="408" on="1"/>
        <pt x="75" y="438" on="1"/>
        <pt x="75" y="700" on="1"/>
        <pt x="208" y="700" on="1"/>
        <pt x="208" y="518" on="1"/>
        <pt x="270" y="555" on="1"/>
        <pt x="270" y="435" on="1"/>
        <pt x="208" y="398" on="1"/>
        <pt x="208" y="153" on="1"/>
        <pt x="208" y="129" on="0"/>
        <pt x="220" y="110" on="0"/>
        <pt x="239" y="110" on="1"/>
        <pt x="250" y="110" on="0"/>
        <pt x="271" y="113" on="0"/>
        <pt x="275" y="114" on="1"/>
      </contour>
    </TTGlyph>
    <TTGlyph name="w" xMin="65" yMin="-170" xMax="469" yMax="700">
      <contour>
        <pt x="65" y="-170" on="1"/>
        <pt x="65" y="700" on="1"/>
        <pt x="198" y="700" on="1"/>
        <pt x="198" y="-170" on="1"/>
      </contour>
      <contour>
        <pt x="469" y="282" on="1"/>
        <pt x="469" y="200" on="0"/>
        <pt x="444" y="88" on="0"/>
        <pt x="389" y="20" on="0"/>
        <pt x="299" y="-9" on="0"/>
        <pt x="234" y="-9" on="1"/>
        <pt x="195" y="-9" on="0"/>
        <pt x="112" y="1" on="0"/>
        <pt x="84" y="5" on="1"/>
        <pt x="148" y="113" on="1"/>
        <pt x="161" y="112" on="0"/>
        <pt x="217" y="105" on="0"/>
        <pt x="241" y="105" on="1"/>
        <pt x="269" y="105" on="0"/>
        <pt x="305" y="118" on="0"/>
        <pt x="326" y="155" on="0"/>
        <pt x="334" y="220" on="0"/>
        <pt x="334" y="272" on="1"/>
        <pt x="334" y="310" on="0"/>
        <pt x="328" y="358" on="0"/>
        <pt x="313" y="385" on="0"/>
        <pt x="289" y="395" on="0"/>
        <pt x="271" y="395" on="1"/>
        <pt x="238" y="395" on="0"/>
        <pt x="198" y="347" on="0"/>
        <pt x="198" y="320" on="1"/>
        <pt x="115" y="336" on="1"/>
        <pt x="124" y="367" on="0"/>
        <pt x="155" y="429" on="0"/>
        <pt x="201" y="478" on="0"/>
        <pt x="264" y="509" on="0"/>
        <pt x="306" y="509" on="1"/>
        <pt x="347" y="509" on="0"/>
        <pt x="409" y="486" on="0"/>
        <pt x="449" y="434" on="0"/>
        <pt x="469" y="347" on="0"/>
      </contour>
    </TTGlyph>
    <TTGlyph name="x" xMin="21" yMin="-9" xMax="414" yMax="716">
      <contour>
        <pt x="377" y="151" on="1"/>
        <pt x="377" y="105" on="0"/>
        <pt x="348" y="44" on="0"/>
        <pt x="295" y="7" on="0"/>
        <pt x="221" y="-9" on="0"/>
        <pt x="176" y="-9" on="1"/>
        <pt x="157" y="-9" on="0"/>
        <pt x="117" y="-6" on="0"/>
        <pt x="80" y="-1" on="0"/>
        <pt x="49" y="4" on="0"/>
        <pt x="39" y="7" on="1"/>
        <pt x="39" y="121" on="1"/>
        <pt x="59" y="116" on="0"/>
        <pt x="123" y="103" on="0"/>
        <pt x="158" y="103" on="1"/>
        <pt x="193" y="103" on="0"/>
        <pt x="240" y="119" on="0"/>
        <pt x="240" y="145" on="1"/>
        <pt x="240" y="168" on="0"/>
        <pt x="215" y="192" on="0"/>
        <pt x="177" y="199" on="1"/>
        <pt x="100" y="213" on="0"/>
        <pt x="37" y="289" on="0"/>
        <pt x="37" y="353" on="1"/>
        <pt x="37" y="437" on="0"/>
        <pt x="139" y="509" on="0"/>
        <pt x="245" y="509" on="1"/>
        <pt x="260" y="509" on="0"/>
        <pt x="294" y="505" on="0"/>
        <pt x="326" y="500" on="0"/>
        <pt x="353" y="494" on="0"/>
        <pt x="360" y="492" on="1"/>
        <pt x="360" y="378" on="1"/>
        <pt x="337" y="385" on="0"/>
        <pt x="282" y="397" on="0"/>
        <pt x="241" y="397" on="1"/>
        <pt x="204" y="397" on="0"/>
        <pt x="172" y="379" on="0"/>
        <pt x="172" y="356" on="1"/>
        <pt x="172" y="338" on="0"/>
        <pt x="204" y="319" on="0"/>
        <pt x="237" y="314" on="1"/>
        <pt x="315" y="301" on="0"/>
        <pt x="377" y="220" on="0"/>
      </contour>
      <contour>
        <pt x="168" y="716" on="1"/>
        <pt x="218" y="642" on="1"/>
        <pt x="268" y="716" on="1"/>
        <pt x="414" y="716" on="1"/>
        <pt x="292" y="581" on="1"/>
        <pt x="144" y="581" on="1"/>
        <pt x="21" y="716" on="1"/>
      </contour>
    </TTGlyph>
    <TTGlyph name="y" xMin="20" yMin="-177" xMax="473" yMax="715">
      <contour>
        <pt x="173" y="580" on="1"/>
        <pt x="277" y="715" on="1"/>
        <pt x="436" y="715" on="1"/>
        <pt x="284" y="580" on="1"/>
      </contour>
      <contour>
        <pt x="345" y="-42" on="1"/>
        <pt x="313" y="-177" on="0"/>
        <pt x="203" y="-177" on="1"/>
        <pt x="195" y="-177" on="0"/>
        <pt x="168" y="-176" on="0"/>
        <pt x="141" y="-175" on="0"/>
        <pt x="118" y="-173" on="0"/>
        <pt x="113" y="-172" on="1"/>
        <pt x="113" y="-59" on="1"/>
        <pt x="137" y="-62" on="0"/>
        <pt x="162" y="-62" on="1"/>
        <pt x="203" y="-62" on="0"/>
        <pt x="211" y="-18" on="1"/>
        <pt x="214" y="0" on="1"/>
        <pt x="180" y="0" on="1"/>
        <pt x="20" y="500" on="1"/>
        <pt x="162" y="500" on="1"/>
        <pt x="259" y="111" on="1"/>
        <pt x="344" y="500" on="1"/>
        <pt x="473" y="500" on="1"/>
      </contour>
    </TTGlyph>
    <TTGlyph name="yacute" xMin="50" yMin="244" xMax="200" yMax="374">
      <contour>
        <pt x="50" y="244" on="1"/>
        <pt x="50" y="374" on="1"/>
        <pt x="200" y="374" on="1"/>
        <pt x="200" y="244" on="1"/>
      </contour>
    </TTGlyph>
    <TTGlyph name="ydieresis" xMin="50" yMin="244" xMax="200" yMax="374">
      <contour>
        <pt x="50" y="244" on="1"/>
        <pt x="50" y="374" on="1"/>
        <pt x="200" y="374" on="1"/>
        <pt x="200" y="244" on="1"/>
      </contour>
    </TTGlyph>
    <TTGlyph name="yen" xMin="50" yMin="244" xMax="200" yMax="374">
      <contour>
        <pt x="50" y="244" on="1"/>
        <pt x="50" y="374" on="1"/>
        <pt x="200" y="374" on="1"/>
        <pt x="200" y="244" on="1"/>
      </contour>
    </TTGlyph>
    <TTGlyph name="z" xMin="30" yMin="0" xMax="423" yMax="716">
      <contour>
        <pt x="191" y="107" on="1"/>
        <pt x="387" y="107" on="1"/>
        <pt x="387" y="0" on="1"/>
        <pt x="39" y="0" on="1"/>
        <pt x="39" y="111" on="1"/>
        <pt x="246" y="393" on="1"/>
        <pt x="59" y="393" on="1"/>
        <pt x="59" y="500" on="1"/>
        <pt x="397" y="500" on="1"/>
        <pt x="397" y="380" on="1"/>
      </contour>
      <contour>
        <pt x="177" y="716" on="1"/>
        <pt x="227" y="642" on="1"/>
        <pt x="277" y="716" on="1"/>
        <pt x="423" y="716" on="1"/>
        <pt x="301" y="581" on="1"/>
        <pt x="153" y="581" on="1"/>
        <pt x="30" y="716" on="1"/>
      </contour>
    </TTGlyph>
    <TTGlyph name="zcaron" xMin="50" yMin="244" xMax="200" yMax="374">
      <contour>
        <pt x="50" y="244" on="1"/>
        <pt x="50" y="374" on="1"/>
        <pt x="200" y="374" on="1"/>
        <pt x="200" y="244" on="1"/>
      </contour>
    </TTGlyph>
    <TTGlyph name="zero" xMin="75" yMin="0" xMax="555" yMax="480">
      <contour>
        <pt x="75" y="0" on="1"/>
        <pt x="75" y="480" on="1"/>
        <pt x="315" y="480" on="1"/>
        <pt x="315" y="240" on="1"/>
        <pt x="555" y="240" on="1"/>
        <pt x="555" y="0" on="1"/>
      </contour>
      <contour>
        <pt x="435" y="360" on="1"/>
        <pt x="435" y="480" on="1"/>
        <pt x="555" y="480" on="1"/>
        <pt x="555" y="360" on="1"/>
      </contour>
    </TTGlyph>
</ttFont>
